<?xml version="1.0" encoding="UTF-8"?><svg id="Layer_2" xmlns="http://www.w3.org/2000/svg" viewBox="0 0 158.42 16.69"><defs><style>.cls-1,.cls-2{fill:#fff;}.cls-3,.cls-2{isolation:isolate;}.cls-2{font-family:MyriadPro-Regular, 'Myriad Pro';font-size:5.25px;}.cls-4{fill:none;stroke:#fff;stroke-miterlimit:10;stroke-width:.25px;}</style></defs><g id="Layer_2-2"><path class="cls-1" d="m55.59,16.68h-1.95v-6.26h-19.98v6.26h-1.95V3.06h1.95v5.7h19.98V3.06h1.95v13.62Z"/><path class="cls-1" d="m88.36,15.71c0,.28-.38.52-1.15.7-.76.18-1.74.27-2.93.27h-15.53c-1.19,0-2.16-.09-2.92-.27-.75-.18-1.13-.41-1.13-.7V3.06h1.95v11.7h19.76V3.06h1.95v12.65Z"/><path class="cls-1" d="m120.33,15.71c0,.28-.38.52-1.13.7s-1.73.27-2.92.27h-18.81V3.06h18.66c1.19,0,2.16.09,2.92.27.75.18,1.13.41,1.13.7v4.05c0,.36-.6,1.22-1.95,1.48,0,0,2.1,1.14,2.1,1.53v4.63h0Zm-2.1-6.67v-4.92h-18.81v4.92h18.81Zm.15,6.56v-5.51h-18.96v5.51h18.96Z"/><path class="cls-1" d="m151.94,15.71c0,.28-.38.52-1.13.7s-1.73.27-2.92.27h-18.81V3.06h18.66c1.19,0,2.16.09,2.92.27.75.18,1.13.41,1.13.7v4.05c0,.36-.6,1.22-1.95,1.48,0,0,2.1,1.14,2.1,1.53v4.63h0Zm-2.1-6.67v-4.92h-18.81v4.92h18.81Zm.15,6.56v-5.51h-18.96v5.51h18.96Z"/><path class="cls-1" d="m22.86,14.73H1.95V5.01h20.91v-1.95H4.05c-1.19,0-2.16.09-2.92.27-.75.18-1.13.41-1.13.7v11.69c0,.28.38.52,1.13.7s1.73.27,2.92.27h18.81v-1.95h0Z"/><circle class="cls-4" cx="156.33" cy="3.06" r="1.96"/><g class="cls-3"><text class="cls-2" transform="translate(155 4.39)"><tspan x="0" y="0">c</tspan></text></g></g></svg>