<?xml version="1.0" encoding="UTF-8"?><svg xmlns="http://www.w3.org/2000/svg" xmlns:xlink="http://www.w3.org/1999/xlink" viewBox="0 0 806.96 812.12"><defs><style>.cls-1{fill:#a9c9f7;}.cls-1,.cls-2,.cls-3,.cls-4,.cls-5{mix-blend-mode:multiply;}.cls-2{fill:#9ab8ed;}.cls-6{isolation:isolate;}.cls-7{fill:url(#radial-gradient);}.cls-3{fill:#a0487b;}.cls-4{fill:#aa6490;}.cls-5{fill:#f0dfcc;}</style><radialGradient id="radial-gradient" cx="398.31" cy="410.5" fx="398.31" fy="410.5" r="490.29" gradientTransform="translate(817.22 5.5) rotate(90) scale(1.01)" gradientUnits="userSpaceOnUse"><stop offset="0" stop-color="#fff"/><stop offset=".42" stop-color="#fcfcfc"/><stop offset=".63" stop-color="#f5f5f5"/><stop offset=".79" stop-color="#e7e7e7"/><stop offset=".93" stop-color="#d5d5d5"/><stop offset="1" stop-color="#c9c9c9"/></radialGradient></defs><g class="cls-6"><g id="Layer_2"><g id="Capa_1"><rect class="cls-7" x="2.05" y="4.41" width="804" height="807.71"/><polygon class="cls-5" points="0 229.32 0 567.79 169.31 400.27 0 229.32"/><polygon class="cls-5" points="1.73 0 0 1.75 0 806.66 1.68 808.35 401.35 400.19 1.73 0"/><polygon class="cls-5" points="166.42 71.88 0 238.28 0 559.44 166.38 725.84 493.24 400.27 166.42 71.88"/><polygon class="cls-5" points="169.28 400.08 413.66 151.63 659.07 399.85 413.63 640.77 169.28 400.08"/><polygon class="cls-5" points="401.02 400.3 571.19 233.36 740.65 400.41 569.83 573.65 401.02 400.3"/><polygon class="cls-5" points="493.4 400.41 640.22 254.1 789.33 400.85 642.14 550.7 493.4 400.41"/><polygon class="cls-5" points="806.96 348.64 757.51 297.82 658.9 399.85 758.8 496.34 806.96 449.08 806.96 348.64"/><polygon class="cls-5" points="806.96 383.96 789.5 400.85 806.96 418.44 806.96 383.96"/><polygon class="cls-4" points="6.06 205.02 3.5 207.58 3.5 579.53 6.03 582.07 194.65 395.45 6.06 205.02"/><polygon class="cls-1" points="116.49 208.74 4.19 322.21 4.19 472.32 116.46 585.79 302.88 395.41 116.49 208.74"/><polygon class="cls-4" points="40.78 394.78 193.3 242.27 345.74 395.45 193.28 547.3 40.78 394.78"/><polygon class="cls-1" points="194.64 395.35 308.63 279.47 423.09 395.25 308.61 507.62 194.64 395.35"/><polygon class="cls-2" points="540.23 372.53 544.71 367.98 549.21 372.53 544.71 376.95 540.23 372.53"/><polygon class="cls-3" points="355.23 303.53 359.71 298.98 364.21 303.53 359.71 307.95 355.23 303.53"/><polygon class="cls-2" points="362.23 288.53 366.71 283.98 371.21 288.53 366.71 292.95 362.23 288.53"/><polygon class="cls-3" points="173.26 232.2 170.68 226.36 176.58 223.86 179.01 229.67 173.26 232.2"/><polygon class="cls-2" points="161.91 220.15 159.34 214.3 165.23 211.81 167.67 217.62 161.91 220.15"/><polygon class="cls-3" points="69.24 591.01 64.87 581.08 74.87 576.85 79.01 586.72 69.24 591.01"/><polygon class="cls-3" points="35.28 585.84 36.47 577.73 44.58 579.03 43.26 587.02 35.28 585.84"/><polygon class="cls-2" points="49.98 570.55 45.61 560.63 55.62 556.39 59.75 566.26 49.98 570.55"/><polygon class="cls-2" points="47.91 227.15 45.34 221.3 51.23 218.81 53.67 224.62 47.91 227.15"/><polygon class="cls-3" points="76.05 215.91 70.83 222.86 63.94 217.53 69.21 210.76 76.05 215.91"/><polygon class="cls-2" points="69.32 237.4 64.1 244.35 57.21 239.02 62.48 232.25 69.32 237.4"/><polygon class="cls-3" points="281.05 500.91 275.83 507.86 268.94 502.53 274.21 495.76 281.05 500.91"/><polygon class="cls-3" points="255.64 505.64 252.21 510.22 247.68 506.71 251.15 502.26 255.64 505.64"/><polygon class="cls-2" points="274.32 522.4 269.1 529.35 262.21 524.02 267.48 517.25 274.32 522.4"/><polygon class="cls-3" points="539.53 422.55 546.71 415.26 553.91 422.55 546.7 429.62 539.53 422.55"/><polygon class="cls-3" points="565.5 396.53 569.71 392.25 573.93 396.53 569.71 400.67 565.5 396.53"/><polygon class="cls-4" points="302.73 395.46 382.1 317.59 461.14 395.51 381.47 476.31 302.73 395.46"/><polygon class="cls-1" points="345.82 395.51 414.3 327.26 483.85 395.72 415.2 465.61 345.82 395.51"/><polygon class="cls-4" points="423.01 395.25 469.01 347.66 515.4 395.33 469.61 440.25 423.01 395.25"/><polygon class="cls-1" points="483.93 395.72 511.3 369.23 538.72 395.56 511.65 423.64 483.93 395.72"/><polygon class="cls-4" points="515.38 395.58 533.69 377.86 552.26 395.68 533.93 414.69 515.38 395.58"/><polygon class="cls-1" points="538.49 395.72 549.87 384.71 561.41 395.78 550.02 407.59 538.49 395.72"/></g></g></g></svg>