<?xml version="1.0" encoding="UTF-8"?><svg id="Layer_2" xmlns="http://www.w3.org/2000/svg" xmlns:xlink="http://www.w3.org/1999/xlink" viewBox="0 0 300.18 300.18"><defs><style>.cls-1{stroke-dasharray:0 0 4.03 4.03;}.cls-1,.cls-2,.cls-3{fill:none;}.cls-1,.cls-3{stroke:#fff;stroke-miterlimit:10;stroke-width:.25px;}.cls-4{clip-path:url(#clippath);}</style><clipPath id="clippath"><circle class="cls-2" cx="150.09" cy="150.09" r="150.09"/></clipPath></defs><g id="Layer_1-2"><g class="cls-4"><line class="cls-1" x1="-82.27" y1="151.69" x2="149.92" y2="383.87"/><line class="cls-1" x1="-73.81" y1="143.23" x2="158.38" y2="375.41"/><line class="cls-1" x1="-65.35" y1="134.76" x2="166.84" y2="366.95"/><line class="cls-1" x1="-56.88" y1="126.3" x2="175.3" y2="358.49"/><line class="cls-1" x1="-48.42" y1="117.84" x2="183.76" y2="350.02"/><line class="cls-1" x1="-39.96" y1="109.38" x2="192.23" y2="341.56"/><line class="cls-1" x1="-31.5" y1="100.92" x2="200.69" y2="333.1"/><line class="cls-1" x1="-23.03" y1="92.45" x2="209.15" y2="324.64"/><line class="cls-1" x1="-14.57" y1="83.99" x2="217.61" y2="316.18"/><line class="cls-1" x1="-6.11" y1="75.53" x2="226.07" y2="307.71"/><line class="cls-1" x1="2.35" y1="67.07" x2="234.54" y2="299.25"/><g><line class="cls-3" x1="6.55" y1="54.34" x2="7.96" y2="55.76"/><line class="cls-1" x1="10.81" y1="58.61" x2="243" y2="290.79"/><line class="cls-3" x1="244.42" y1="292.21" x2="245.84" y2="293.63"/></g><g><line class="cls-3" x1="15.01" y1="45.88" x2="16.43" y2="47.29"/><line class="cls-1" x1="19.28" y1="50.14" x2="251.46" y2="282.33"/><line class="cls-3" x1="252.88" y1="283.75" x2="254.3" y2="285.17"/></g><g><line class="cls-3" x1="23.47" y1="37.42" x2="24.89" y2="38.83"/><line class="cls-1" x1="27.74" y1="41.68" x2="259.92" y2="273.87"/><line class="cls-3" x1="261.35" y1="275.29" x2="262.76" y2="276.7"/></g><g><line class="cls-3" x1="31.94" y1="28.96" x2="33.35" y2="30.37"/><line class="cls-1" x1="36.2" y1="33.22" x2="268.38" y2="265.4"/><line class="cls-3" x1="269.81" y1="266.83" x2="271.22" y2="268.24"/></g><g><line class="cls-3" x1="40.4" y1="20.49" x2="41.81" y2="21.91"/><line class="cls-1" x1="44.66" y1="24.76" x2="276.85" y2="256.94"/><line class="cls-3" x1="278.27" y1="258.37" x2="279.69" y2="259.78"/></g><g><line class="cls-3" x1="48.86" y1="12.03" x2="50.28" y2="13.45"/><line class="cls-1" x1="53.12" y1="16.29" x2="285.31" y2="248.48"/><line class="cls-3" x1="286.73" y1="249.9" x2="288.15" y2="251.32"/></g><g><line class="cls-3" x1="57.32" y1="3.57" x2="58.74" y2="4.98"/><line class="cls-1" x1="61.59" y1="7.83" x2="293.77" y2="240.02"/><line class="cls-3" x1="295.2" y1="241.44" x2="296.61" y2="242.86"/></g><line class="cls-1" x1="70.05" y1="-.63" x2="302.23" y2="231.56"/><line class="cls-1" x1="78.51" y1="-9.09" x2="310.7" y2="223.09"/><line class="cls-1" x1="86.97" y1="-17.55" x2="319.16" y2="214.63"/><line class="cls-1" x1="95.43" y1="-26.02" x2="327.62" y2="206.17"/><line class="cls-1" x1="103.9" y1="-34.48" x2="336.08" y2="197.71"/><line class="cls-1" x1="112.36" y1="-42.94" x2="344.54" y2="189.24"/><line class="cls-1" x1="120.82" y1="-51.4" x2="353.01" y2="180.78"/><line class="cls-1" x1="129.28" y1="-59.86" x2="361.47" y2="172.32"/><line class="cls-1" x1="137.75" y1="-68.33" x2="369.93" y2="163.86"/><line class="cls-1" x1="146.21" y1="-76.79" x2="378.39" y2="155.4"/></g></g></svg>