<?xml version="1.0" encoding="UTF-8"?><svg id="Layer_2" xmlns="http://www.w3.org/2000/svg" xmlns:xlink="http://www.w3.org/1999/xlink" viewBox="0 0 247.94 247.94"><defs><style>.cls-1{fill:#fff;}.cls-2{clip-path:url(#clippath);}.cls-3{fill:none;}</style><clipPath id="clippath"><circle class="cls-3" cx="123.97" cy="123.97" r="123.97"/></clipPath></defs><g id="Layer_1-2"><g class="cls-2"><circle class="cls-1" cx="-1.3" cy="8.5" r="2.83"/><circle class="cls-1" cx="11.88" cy="8.5" r="2.83"/><circle class="cls-1" cx="25.07" cy="8.5" r="2.83"/><circle class="cls-1" cx="38.26" cy="8.5" r="2.83"/><circle class="cls-1" cx="51.44" cy="8.5" r="2.83"/><circle class="cls-1" cx="64.63" cy="8.5" r="2.83"/><circle class="cls-1" cx="77.82" cy="8.5" r="2.83"/><circle class="cls-1" cx="91" cy="8.5" r="2.83"/><circle class="cls-1" cx="104.19" cy="8.5" r="2.83"/><circle class="cls-1" cx="117.38" cy="8.5" r="2.83"/><circle class="cls-1" cx="130.56" cy="8.5" r="2.83"/><circle class="cls-1" cx="143.75" cy="8.5" r="2.83"/><circle class="cls-1" cx="156.94" cy="8.5" r="2.83"/><circle class="cls-1" cx="170.12" cy="8.5" r="2.83"/><circle class="cls-1" cx="183.31" cy="8.5" r="2.83"/><circle class="cls-1" cx="196.5" cy="8.5" r="2.83"/><circle class="cls-1" cx="209.69" cy="8.5" r="2.83"/><circle class="cls-1" cx="222.87" cy="8.5" r="2.83"/><circle class="cls-1" cx="236.06" cy="8.5" r="2.83"/><circle class="cls-1" cx="249.25" cy="8.5" r="2.83"/><circle class="cls-1" cx="-1.3" cy="22.08" r="2.83"/><circle class="cls-1" cx="11.88" cy="22.08" r="2.83"/><circle class="cls-1" cx="25.07" cy="22.08" r="2.83"/><circle class="cls-1" cx="38.26" cy="22.08" r="2.83"/><circle class="cls-1" cx="51.44" cy="22.08" r="2.83"/><circle class="cls-1" cx="64.63" cy="22.08" r="2.83"/><circle class="cls-1" cx="77.82" cy="22.08" r="2.83"/><circle class="cls-1" cx="91" cy="22.08" r="2.83"/><circle class="cls-1" cx="104.19" cy="22.08" r="2.83"/><circle class="cls-1" cx="117.38" cy="22.08" r="2.83"/><circle class="cls-1" cx="130.56" cy="22.08" r="2.83"/><circle class="cls-1" cx="143.75" cy="22.08" r="2.83"/><circle class="cls-1" cx="156.94" cy="22.08" r="2.83"/><circle class="cls-1" cx="170.12" cy="22.08" r="2.83"/><circle class="cls-1" cx="183.31" cy="22.08" r="2.83"/><circle class="cls-1" cx="196.5" cy="22.08" r="2.83"/><circle class="cls-1" cx="209.69" cy="22.08" r="2.83"/><circle class="cls-1" cx="222.87" cy="22.08" r="2.83"/><circle class="cls-1" cx="236.06" cy="22.08" r="2.83"/><circle class="cls-1" cx="249.25" cy="22.08" r="2.83"/><circle class="cls-1" cx="-1.3" cy="35.67" r="2.83"/><circle class="cls-1" cx="11.88" cy="35.67" r="2.83"/><circle class="cls-1" cx="25.07" cy="35.67" r="2.83"/><circle class="cls-1" cx="38.26" cy="35.67" r="2.83"/><circle class="cls-1" cx="51.44" cy="35.67" r="2.83"/><circle class="cls-1" cx="64.63" cy="35.67" r="2.83"/><circle class="cls-1" cx="77.82" cy="35.67" r="2.83"/><circle class="cls-1" cx="91" cy="35.67" r="2.83"/><circle class="cls-1" cx="104.19" cy="35.67" r="2.83"/><circle class="cls-1" cx="117.38" cy="35.67" r="2.83"/><circle class="cls-1" cx="130.56" cy="35.67" r="2.83"/><circle class="cls-1" cx="143.75" cy="35.67" r="2.83"/><circle class="cls-1" cx="156.94" cy="35.67" r="2.83"/><circle class="cls-1" cx="170.12" cy="35.67" r="2.83"/><circle class="cls-1" cx="183.31" cy="35.67" r="2.83"/><circle class="cls-1" cx="196.5" cy="35.67" r="2.83"/><circle class="cls-1" cx="209.69" cy="35.67" r="2.83"/><circle class="cls-1" cx="222.87" cy="35.67" r="2.83"/><circle class="cls-1" cx="236.06" cy="35.67" r="2.83"/><circle class="cls-1" cx="249.25" cy="35.67" r="2.83"/><circle class="cls-1" cx="-1.3" cy="49.25" r="2.83"/><circle class="cls-1" cx="11.88" cy="49.25" r="2.83"/><circle class="cls-1" cx="25.07" cy="49.25" r="2.83"/><circle class="cls-1" cx="38.26" cy="49.25" r="2.83"/><circle class="cls-1" cx="51.44" cy="49.25" r="2.83"/><circle class="cls-1" cx="64.63" cy="49.25" r="2.83"/><circle class="cls-1" cx="77.82" cy="49.25" r="2.83"/><circle class="cls-1" cx="91" cy="49.25" r="2.83"/><circle class="cls-1" cx="104.19" cy="49.25" r="2.83"/><circle class="cls-1" cx="117.38" cy="49.25" r="2.83"/><circle class="cls-1" cx="130.56" cy="49.25" r="2.83"/><circle class="cls-1" cx="143.75" cy="49.25" r="2.83"/><circle class="cls-1" cx="156.94" cy="49.25" r="2.83"/><circle class="cls-1" cx="170.12" cy="49.25" r="2.83"/><circle class="cls-1" cx="183.31" cy="49.25" r="2.83"/><circle class="cls-1" cx="196.5" cy="49.25" r="2.83"/><circle class="cls-1" cx="209.69" cy="49.25" r="2.83"/><circle class="cls-1" cx="222.87" cy="49.25" r="2.83"/><circle class="cls-1" cx="236.06" cy="49.25" r="2.83"/><circle class="cls-1" cx="249.25" cy="49.25" r="2.83"/><circle class="cls-1" cx="-1.3" cy="62.84" r="2.83"/><circle class="cls-1" cx="11.88" cy="62.84" r="2.83"/><circle class="cls-1" cx="25.07" cy="62.84" r="2.83"/><circle class="cls-1" cx="38.26" cy="62.84" r="2.83"/><circle class="cls-1" cx="51.44" cy="62.84" r="2.83"/><circle class="cls-1" cx="64.63" cy="62.84" r="2.83"/><circle class="cls-1" cx="77.82" cy="62.84" r="2.83"/><circle class="cls-1" cx="91" cy="62.84" r="2.83"/><circle class="cls-1" cx="104.19" cy="62.84" r="2.83"/><circle class="cls-1" cx="117.38" cy="62.84" r="2.83"/><circle class="cls-1" cx="130.56" cy="62.84" r="2.83"/><circle class="cls-1" cx="143.75" cy="62.84" r="2.83"/><circle class="cls-1" cx="156.94" cy="62.84" r="2.83"/><circle class="cls-1" cx="170.12" cy="62.84" r="2.83"/><circle class="cls-1" cx="183.31" cy="62.84" r="2.83"/><circle class="cls-1" cx="196.5" cy="62.84" r="2.83"/><circle class="cls-1" cx="209.69" cy="62.84" r="2.83"/><circle class="cls-1" cx="222.87" cy="62.84" r="2.83"/><circle class="cls-1" cx="236.06" cy="62.84" r="2.83"/><circle class="cls-1" cx="249.25" cy="62.84" r="2.83"/><circle class="cls-1" cx="-1.3" cy="76.42" r="2.83"/><circle class="cls-1" cx="11.88" cy="76.42" r="2.83"/><circle class="cls-1" cx="25.07" cy="76.42" r="2.83"/><circle class="cls-1" cx="38.26" cy="76.42" r="2.83"/><circle class="cls-1" cx="51.44" cy="76.42" r="2.83"/><circle class="cls-1" cx="64.63" cy="76.42" r="2.83"/><circle class="cls-1" cx="77.82" cy="76.42" r="2.83"/><circle class="cls-1" cx="91" cy="76.42" r="2.83"/><circle class="cls-1" cx="104.19" cy="76.42" r="2.83"/><circle class="cls-1" cx="117.38" cy="76.42" r="2.83"/><circle class="cls-1" cx="130.56" cy="76.42" r="2.83"/><circle class="cls-1" cx="143.75" cy="76.42" r="2.83"/><circle class="cls-1" cx="156.94" cy="76.42" r="2.83"/><circle class="cls-1" cx="170.12" cy="76.42" r="2.83"/><circle class="cls-1" cx="183.31" cy="76.42" r="2.83"/><circle class="cls-1" cx="196.5" cy="76.42" r="2.83"/><circle class="cls-1" cx="209.69" cy="76.42" r="2.83"/><circle class="cls-1" cx="222.87" cy="76.42" r="2.83"/><circle class="cls-1" cx="236.06" cy="76.42" r="2.83"/><circle class="cls-1" cx="249.25" cy="76.42" r="2.83"/><circle class="cls-1" cx="-1.3" cy="90.01" r="2.83"/><circle class="cls-1" cx="11.88" cy="90.01" r="2.83"/><circle class="cls-1" cx="25.07" cy="90.01" r="2.83"/><circle class="cls-1" cx="38.26" cy="90.01" r="2.83"/><circle class="cls-1" cx="51.44" cy="90.01" r="2.83"/><circle class="cls-1" cx="64.63" cy="90.01" r="2.83"/><circle class="cls-1" cx="77.82" cy="90.01" r="2.83"/><circle class="cls-1" cx="91" cy="90.01" r="2.83"/><circle class="cls-1" cx="104.19" cy="90.01" r="2.83"/><circle class="cls-1" cx="117.38" cy="90.01" r="2.83"/><circle class="cls-1" cx="130.56" cy="90.01" r="2.83"/><circle class="cls-1" cx="143.75" cy="90.01" r="2.83"/><circle class="cls-1" cx="156.94" cy="90.01" r="2.83"/><circle class="cls-1" cx="170.12" cy="90.01" r="2.83"/><circle class="cls-1" cx="183.31" cy="90.01" r="2.83"/><circle class="cls-1" cx="196.5" cy="90.01" r="2.83"/><circle class="cls-1" cx="209.69" cy="90.01" r="2.83"/><circle class="cls-1" cx="222.87" cy="90.01" r="2.83"/><circle class="cls-1" cx="236.06" cy="90.01" r="2.83"/><circle class="cls-1" cx="249.25" cy="90.01" r="2.83"/><circle class="cls-1" cx="-1.3" cy="103.59" r="2.83"/><circle class="cls-1" cx="11.88" cy="103.59" r="2.83"/><circle class="cls-1" cx="25.07" cy="103.59" r="2.83"/><circle class="cls-1" cx="38.26" cy="103.59" r="2.83"/><circle class="cls-1" cx="51.44" cy="103.59" r="2.83"/><circle class="cls-1" cx="64.63" cy="103.59" r="2.83"/><circle class="cls-1" cx="77.82" cy="103.59" r="2.83"/><circle class="cls-1" cx="91" cy="103.59" r="2.83"/><circle class="cls-1" cx="104.19" cy="103.59" r="2.83"/><circle class="cls-1" cx="117.38" cy="103.59" r="2.83"/><circle class="cls-1" cx="130.56" cy="103.59" r="2.83"/><circle class="cls-1" cx="143.75" cy="103.59" r="2.83"/><circle class="cls-1" cx="156.94" cy="103.59" r="2.83"/><circle class="cls-1" cx="170.12" cy="103.59" r="2.83"/><circle class="cls-1" cx="183.31" cy="103.59" r="2.83"/><circle class="cls-1" cx="196.5" cy="103.59" r="2.83"/><circle class="cls-1" cx="209.69" cy="103.59" r="2.83"/><circle class="cls-1" cx="222.87" cy="103.59" r="2.83"/><circle class="cls-1" cx="236.06" cy="103.59" r="2.83"/><circle class="cls-1" cx="249.25" cy="103.59" r="2.83"/><circle class="cls-1" cx="-1.3" cy="117.18" r="2.83"/><circle class="cls-1" cx="11.88" cy="117.18" r="2.83"/><circle class="cls-1" cx="25.07" cy="117.18" r="2.83"/><circle class="cls-1" cx="38.26" cy="117.18" r="2.83"/><circle class="cls-1" cx="51.44" cy="117.18" r="2.83"/><circle class="cls-1" cx="64.63" cy="117.18" r="2.83"/><circle class="cls-1" cx="77.82" cy="117.18" r="2.83"/><circle class="cls-1" cx="91" cy="117.18" r="2.83"/><circle class="cls-1" cx="104.19" cy="117.18" r="2.83"/><circle class="cls-1" cx="117.38" cy="117.18" r="2.83"/><circle class="cls-1" cx="130.56" cy="117.18" r="2.83"/><circle class="cls-1" cx="143.75" cy="117.18" r="2.83"/><circle class="cls-1" cx="156.94" cy="117.18" r="2.83"/><circle class="cls-1" cx="170.12" cy="117.18" r="2.83"/><circle class="cls-1" cx="183.31" cy="117.18" r="2.83"/><circle class="cls-1" cx="196.5" cy="117.18" r="2.83"/><circle class="cls-1" cx="209.69" cy="117.18" r="2.83"/><circle class="cls-1" cx="222.87" cy="117.18" r="2.83"/><circle class="cls-1" cx="236.06" cy="117.18" r="2.83"/><circle class="cls-1" cx="249.25" cy="117.18" r="2.83"/><circle class="cls-1" cx="-1.3" cy="130.76" r="2.83"/><circle class="cls-1" cx="11.88" cy="130.76" r="2.83"/><circle class="cls-1" cx="25.07" cy="130.76" r="2.83"/><circle class="cls-1" cx="38.26" cy="130.76" r="2.83"/><circle class="cls-1" cx="51.44" cy="130.76" r="2.83"/><circle class="cls-1" cx="64.63" cy="130.76" r="2.83"/><circle class="cls-1" cx="77.82" cy="130.76" r="2.83"/><circle class="cls-1" cx="91" cy="130.76" r="2.83"/><circle class="cls-1" cx="104.19" cy="130.76" r="2.83"/><circle class="cls-1" cx="117.38" cy="130.76" r="2.83"/><circle class="cls-1" cx="130.56" cy="130.76" r="2.83"/><circle class="cls-1" cx="143.75" cy="130.76" r="2.83"/><circle class="cls-1" cx="156.94" cy="130.76" r="2.83"/><circle class="cls-1" cx="170.12" cy="130.76" r="2.83"/><circle class="cls-1" cx="183.31" cy="130.76" r="2.83"/><circle class="cls-1" cx="196.5" cy="130.76" r="2.83"/><circle class="cls-1" cx="209.69" cy="130.76" r="2.83"/><circle class="cls-1" cx="222.87" cy="130.76" r="2.83"/><circle class="cls-1" cx="236.06" cy="130.76" r="2.83"/><circle class="cls-1" cx="249.25" cy="130.76" r="2.83"/><circle class="cls-1" cx="-1.3" cy="144.35" r="2.83"/><circle class="cls-1" cx="11.88" cy="144.35" r="2.83"/><circle class="cls-1" cx="25.07" cy="144.35" r="2.83"/><circle class="cls-1" cx="38.26" cy="144.35" r="2.83"/><circle class="cls-1" cx="51.44" cy="144.35" r="2.83"/><circle class="cls-1" cx="64.63" cy="144.35" r="2.83"/><circle class="cls-1" cx="77.82" cy="144.35" r="2.83"/><circle class="cls-1" cx="91" cy="144.35" r="2.83"/><circle class="cls-1" cx="104.19" cy="144.35" r="2.83"/><circle class="cls-1" cx="117.38" cy="144.35" r="2.83"/><circle class="cls-1" cx="130.56" cy="144.35" r="2.83"/><circle class="cls-1" cx="143.75" cy="144.35" r="2.83"/><circle class="cls-1" cx="156.94" cy="144.35" r="2.83"/><circle class="cls-1" cx="170.12" cy="144.35" r="2.83"/><circle class="cls-1" cx="183.31" cy="144.35" r="2.83"/><circle class="cls-1" cx="196.5" cy="144.35" r="2.83"/><circle class="cls-1" cx="209.69" cy="144.35" r="2.83"/><circle class="cls-1" cx="222.87" cy="144.35" r="2.83"/><circle class="cls-1" cx="236.06" cy="144.35" r="2.83"/><circle class="cls-1" cx="249.25" cy="144.35" r="2.83"/><circle class="cls-1" cx="-1.3" cy="157.93" r="2.83"/><circle class="cls-1" cx="11.88" cy="157.93" r="2.83"/><circle class="cls-1" cx="25.07" cy="157.93" r="2.83"/><circle class="cls-1" cx="38.26" cy="157.93" r="2.83"/><circle class="cls-1" cx="51.44" cy="157.93" r="2.83"/><circle class="cls-1" cx="64.63" cy="157.93" r="2.83"/><circle class="cls-1" cx="77.82" cy="157.93" r="2.83"/><circle class="cls-1" cx="91" cy="157.93" r="2.83"/><circle class="cls-1" cx="104.19" cy="157.93" r="2.83"/><circle class="cls-1" cx="117.38" cy="157.93" r="2.83"/><circle class="cls-1" cx="130.56" cy="157.93" r="2.83"/><circle class="cls-1" cx="143.75" cy="157.93" r="2.83"/><circle class="cls-1" cx="156.94" cy="157.93" r="2.83"/><circle class="cls-1" cx="170.12" cy="157.93" r="2.83"/><circle class="cls-1" cx="183.31" cy="157.93" r="2.83"/><circle class="cls-1" cx="196.5" cy="157.93" r="2.83"/><circle class="cls-1" cx="209.69" cy="157.93" r="2.83"/><circle class="cls-1" cx="222.87" cy="157.93" r="2.83"/><circle class="cls-1" cx="236.06" cy="157.93" r="2.83"/><circle class="cls-1" cx="249.25" cy="157.93" r="2.83"/><circle class="cls-1" cx="-1.3" cy="171.52" r="2.83"/><circle class="cls-1" cx="11.88" cy="171.52" r="2.83"/><circle class="cls-1" cx="25.07" cy="171.52" r="2.83"/><circle class="cls-1" cx="38.26" cy="171.52" r="2.83"/><circle class="cls-1" cx="51.44" cy="171.52" r="2.83"/><circle class="cls-1" cx="64.63" cy="171.52" r="2.83"/><circle class="cls-1" cx="77.82" cy="171.52" r="2.83"/><circle class="cls-1" cx="91" cy="171.52" r="2.83"/><circle class="cls-1" cx="104.19" cy="171.52" r="2.83"/><circle class="cls-1" cx="117.38" cy="171.52" r="2.83"/><circle class="cls-1" cx="130.56" cy="171.52" r="2.83"/><circle class="cls-1" cx="143.75" cy="171.52" r="2.83"/><circle class="cls-1" cx="156.94" cy="171.52" r="2.83"/><circle class="cls-1" cx="170.12" cy="171.52" r="2.83"/><circle class="cls-1" cx="183.31" cy="171.52" r="2.83"/><circle class="cls-1" cx="196.5" cy="171.52" r="2.83"/><circle class="cls-1" cx="209.69" cy="171.52" r="2.83"/><circle class="cls-1" cx="222.87" cy="171.52" r="2.83"/><circle class="cls-1" cx="236.06" cy="171.52" r="2.83"/><circle class="cls-1" cx="249.25" cy="171.52" r="2.83"/><circle class="cls-1" cx="-1.3" cy="185.1" r="2.83"/><circle class="cls-1" cx="11.88" cy="185.1" r="2.83"/><circle class="cls-1" cx="25.07" cy="185.1" r="2.83"/><circle class="cls-1" cx="38.26" cy="185.1" r="2.83"/><circle class="cls-1" cx="51.44" cy="185.1" r="2.83"/><circle class="cls-1" cx="64.63" cy="185.1" r="2.83"/><circle class="cls-1" cx="77.82" cy="185.1" r="2.83"/><circle class="cls-1" cx="91" cy="185.1" r="2.83"/><circle class="cls-1" cx="104.19" cy="185.1" r="2.83"/><circle class="cls-1" cx="117.38" cy="185.1" r="2.83"/><circle class="cls-1" cx="130.56" cy="185.1" r="2.83"/><circle class="cls-1" cx="143.75" cy="185.1" r="2.83"/><circle class="cls-1" cx="156.94" cy="185.1" r="2.83"/><circle class="cls-1" cx="170.12" cy="185.1" r="2.83"/><circle class="cls-1" cx="183.31" cy="185.1" r="2.83"/><circle class="cls-1" cx="196.5" cy="185.1" r="2.83"/><circle class="cls-1" cx="209.69" cy="185.1" r="2.83"/><circle class="cls-1" cx="222.87" cy="185.1" r="2.83"/><circle class="cls-1" cx="236.06" cy="185.1" r="2.83"/><circle class="cls-1" cx="249.25" cy="185.1" r="2.83"/><circle class="cls-1" cx="-1.3" cy="198.69" r="2.83"/><circle class="cls-1" cx="11.88" cy="198.69" r="2.83"/><circle class="cls-1" cx="25.07" cy="198.69" r="2.83"/><circle class="cls-1" cx="38.26" cy="198.69" r="2.83"/><circle class="cls-1" cx="51.44" cy="198.69" r="2.83"/><circle class="cls-1" cx="64.63" cy="198.69" r="2.83"/><circle class="cls-1" cx="77.82" cy="198.69" r="2.83"/><circle class="cls-1" cx="91" cy="198.69" r="2.83"/><circle class="cls-1" cx="104.19" cy="198.69" r="2.83"/><circle class="cls-1" cx="117.38" cy="198.69" r="2.83"/><circle class="cls-1" cx="130.56" cy="198.69" r="2.83"/><circle class="cls-1" cx="143.75" cy="198.69" r="2.83"/><circle class="cls-1" cx="156.94" cy="198.69" r="2.83"/><circle class="cls-1" cx="170.12" cy="198.69" r="2.83"/><circle class="cls-1" cx="183.31" cy="198.69" r="2.83"/><circle class="cls-1" cx="196.5" cy="198.69" r="2.83"/><circle class="cls-1" cx="209.69" cy="198.69" r="2.83"/><circle class="cls-1" cx="222.87" cy="198.69" r="2.83"/><circle class="cls-1" cx="236.06" cy="198.69" r="2.83"/><circle class="cls-1" cx="249.25" cy="198.69" r="2.83"/><circle class="cls-1" cx="-1.3" cy="212.27" r="2.83"/><circle class="cls-1" cx="11.88" cy="212.27" r="2.83"/><circle class="cls-1" cx="25.07" cy="212.27" r="2.83"/><circle class="cls-1" cx="38.26" cy="212.27" r="2.83"/><circle class="cls-1" cx="51.44" cy="212.27" r="2.83"/><circle class="cls-1" cx="64.63" cy="212.27" r="2.83"/><circle class="cls-1" cx="77.82" cy="212.27" r="2.83"/><circle class="cls-1" cx="91" cy="212.27" r="2.83"/><circle class="cls-1" cx="104.19" cy="212.27" r="2.83"/><circle class="cls-1" cx="117.38" cy="212.27" r="2.83"/><circle class="cls-1" cx="130.56" cy="212.27" r="2.83"/><circle class="cls-1" cx="143.75" cy="212.27" r="2.83"/><circle class="cls-1" cx="156.94" cy="212.27" r="2.83"/><circle class="cls-1" cx="170.12" cy="212.27" r="2.83"/><circle class="cls-1" cx="183.31" cy="212.27" r="2.83"/><circle class="cls-1" cx="196.5" cy="212.27" r="2.83"/><circle class="cls-1" cx="209.69" cy="212.27" r="2.83"/><circle class="cls-1" cx="222.87" cy="212.27" r="2.83"/><circle class="cls-1" cx="236.06" cy="212.27" r="2.83"/><circle class="cls-1" cx="249.25" cy="212.27" r="2.83"/><circle class="cls-1" cx="-1.3" cy="225.86" r="2.83"/><circle class="cls-1" cx="11.88" cy="225.86" r="2.83"/><circle class="cls-1" cx="25.07" cy="225.86" r="2.83"/><circle class="cls-1" cx="38.26" cy="225.86" r="2.83"/><circle class="cls-1" cx="51.44" cy="225.86" r="2.83"/><circle class="cls-1" cx="64.63" cy="225.86" r="2.83"/><circle class="cls-1" cx="77.82" cy="225.86" r="2.83"/><circle class="cls-1" cx="91" cy="225.86" r="2.83"/><circle class="cls-1" cx="104.19" cy="225.86" r="2.83"/><circle class="cls-1" cx="117.38" cy="225.86" r="2.83"/><circle class="cls-1" cx="130.56" cy="225.86" r="2.83"/><circle class="cls-1" cx="143.75" cy="225.86" r="2.83"/><circle class="cls-1" cx="156.94" cy="225.86" r="2.83"/><circle class="cls-1" cx="170.12" cy="225.86" r="2.83"/><circle class="cls-1" cx="183.31" cy="225.86" r="2.83"/><circle class="cls-1" cx="196.5" cy="225.86" r="2.83"/><circle class="cls-1" cx="209.69" cy="225.86" r="2.83"/><circle class="cls-1" cx="222.87" cy="225.86" r="2.83"/><circle class="cls-1" cx="236.06" cy="225.86" r="2.83"/><circle class="cls-1" cx="249.25" cy="225.86" r="2.83"/><circle class="cls-1" cx="-1.3" cy="239.44" r="2.83"/><circle class="cls-1" cx="11.88" cy="239.44" r="2.83"/><circle class="cls-1" cx="25.07" cy="239.44" r="2.83"/><circle class="cls-1" cx="38.26" cy="239.44" r="2.83"/><circle class="cls-1" cx="51.44" cy="239.44" r="2.83"/><circle class="cls-1" cx="64.63" cy="239.44" r="2.83"/><circle class="cls-1" cx="77.82" cy="239.44" r="2.83"/><circle class="cls-1" cx="91" cy="239.44" r="2.83"/><circle class="cls-1" cx="104.19" cy="239.44" r="2.83"/><circle class="cls-1" cx="117.38" cy="239.44" r="2.83"/><circle class="cls-1" cx="130.56" cy="239.44" r="2.83"/><circle class="cls-1" cx="143.75" cy="239.44" r="2.83"/><circle class="cls-1" cx="156.94" cy="239.44" r="2.83"/><circle class="cls-1" cx="170.12" cy="239.44" r="2.83"/><circle class="cls-1" cx="183.31" cy="239.44" r="2.83"/><circle class="cls-1" cx="196.5" cy="239.44" r="2.83"/><circle class="cls-1" cx="209.69" cy="239.44" r="2.83"/><circle class="cls-1" cx="222.87" cy="239.44" r="2.83"/><circle class="cls-1" cx="236.06" cy="239.44" r="2.83"/><circle class="cls-1" cx="249.25" cy="239.44" r="2.83"/></g></g></svg>