<?xml version="1.0" encoding="UTF-8"?><svg id="Layer_2" xmlns="http://www.w3.org/2000/svg" viewBox="0 0 534.68 633.51"><defs><style>.cls-1{fill:#fff;}</style></defs><g id="Layer_1-2"><rect class="cls-1" x="182.79" y="183.54" width="291.05" height="49.29" rx="24.64" ry="24.64" transform="translate(-51.05 293.13) rotate(-45)"/><rect class="cls-1" x="-35.43" y="401.76" width="291.05" height="49.29" rx="24.64" ry="24.64" transform="translate(-269.27 202.74) rotate(-45)"/><rect class="cls-1" x="279.07" y="183.54" width="291.05" height="49.29" rx="24.64" ry="24.64" transform="translate(-22.85 361.21) rotate(-45)"/><rect class="cls-1" x="60.85" y="401.76" width="291.05" height="49.29" rx="24.64" ry="24.64" transform="translate(-241.07 270.82) rotate(-45)"/><rect class="cls-1" x="279.07" y="280.55" width="291.05" height="49.29" rx="24.64" ry="24.64" transform="translate(-91.45 389.62) rotate(-45)"/><rect class="cls-1" x="60.85" y="498.77" width="291.05" height="49.29" rx="24.64" ry="24.64" transform="translate(-309.67 299.23) rotate(-45)"/><rect class="cls-1" x="182.79" y="85.45" width="291.05" height="49.29" rx="24.64" ry="24.64" transform="translate(18.32 264.39) rotate(-45)"/><rect class="cls-1" x="-35.43" y="303.67" width="291.05" height="49.29" rx="24.64" ry="24.64" transform="translate(-199.91 174) rotate(-45)"/></g></svg>