<?xml version="1.0" encoding="UTF-8"?><svg id="Layer_2" xmlns="http://www.w3.org/2000/svg" viewBox="0 0 186.32 161.32"><defs><style>.cls-1{fill:#fff;}</style></defs><g id="Layer_1-2"><circle class="cls-1" cx="1.42" cy="1.42" r="1.42"/><circle class="cls-1" cx="12.88" cy="1.42" r="1.42"/><circle class="cls-1" cx="24.35" cy="1.42" r="1.42"/><circle class="cls-1" cx="35.82" cy="1.42" r="1.42"/><circle class="cls-1" cx="47.29" cy="1.42" r="1.42"/><circle class="cls-1" cx="58.76" cy="1.42" r="1.42"/><circle class="cls-1" cx="70.22" cy="1.42" r="1.42"/><circle class="cls-1" cx="81.69" cy="1.42" r="1.42"/><circle class="cls-1" cx="93.16" cy="1.42" r="1.42"/><circle class="cls-1" cx="104.63" cy="1.42" r="1.42"/><circle class="cls-1" cx="116.09" cy="1.42" r="1.42"/><circle class="cls-1" cx="127.56" cy="1.42" r="1.42"/><circle class="cls-1" cx="139.03" cy="1.42" r="1.42"/><circle class="cls-1" cx="150.5" cy="1.42" r="1.42"/><circle class="cls-1" cx="161.96" cy="1.42" r="1.42"/><circle class="cls-1" cx="173.43" cy="1.42" r="1.42"/><circle class="cls-1" cx="184.9" cy="1.42" r="1.42"/><circle class="cls-1" cx="1.42" cy="11.32" r="1.42"/><circle class="cls-1" cx="12.88" cy="11.32" r="1.42"/><circle class="cls-1" cx="24.35" cy="11.32" r="1.42"/><circle class="cls-1" cx="35.82" cy="11.32" r="1.42"/><circle class="cls-1" cx="47.29" cy="11.32" r="1.42"/><circle class="cls-1" cx="58.76" cy="11.32" r="1.42"/><circle class="cls-1" cx="70.22" cy="11.32" r="1.42"/><circle class="cls-1" cx="81.69" cy="11.32" r="1.42"/><circle class="cls-1" cx="93.16" cy="11.32" r="1.42"/><circle class="cls-1" cx="104.63" cy="11.32" r="1.42"/><circle class="cls-1" cx="116.09" cy="11.32" r="1.42"/><circle class="cls-1" cx="127.56" cy="11.32" r="1.42"/><circle class="cls-1" cx="139.03" cy="11.32" r="1.42"/><circle class="cls-1" cx="150.5" cy="11.32" r="1.42"/><circle class="cls-1" cx="161.96" cy="11.32" r="1.42"/><circle class="cls-1" cx="173.43" cy="11.32" r="1.42"/><circle class="cls-1" cx="184.9" cy="11.32" r="1.42"/><circle class="cls-1" cx="1.42" cy="21.23" r="1.42"/><circle class="cls-1" cx="12.88" cy="21.23" r="1.42"/><circle class="cls-1" cx="24.35" cy="21.23" r="1.42"/><circle class="cls-1" cx="35.82" cy="21.23" r="1.42"/><circle class="cls-1" cx="47.29" cy="21.23" r="1.42"/><circle class="cls-1" cx="58.76" cy="21.23" r="1.42"/><circle class="cls-1" cx="70.22" cy="21.23" r="1.42"/><circle class="cls-1" cx="81.69" cy="21.23" r="1.42"/><circle class="cls-1" cx="93.16" cy="21.23" r="1.42"/><circle class="cls-1" cx="104.63" cy="21.23" r="1.42"/><circle class="cls-1" cx="116.09" cy="21.23" r="1.42"/><circle class="cls-1" cx="127.56" cy="21.23" r="1.42"/><circle class="cls-1" cx="139.03" cy="21.23" r="1.42"/><circle class="cls-1" cx="150.5" cy="21.23" r="1.42"/><circle class="cls-1" cx="161.96" cy="21.23" r="1.42"/><circle class="cls-1" cx="173.43" cy="21.23" r="1.42"/><circle class="cls-1" cx="184.9" cy="21.23" r="1.42"/><circle class="cls-1" cx="1.42" cy="31.13" r="1.42"/><circle class="cls-1" cx="12.88" cy="31.13" r="1.42"/><circle class="cls-1" cx="24.35" cy="31.13" r="1.42"/><circle class="cls-1" cx="35.82" cy="31.13" r="1.42"/><circle class="cls-1" cx="47.29" cy="31.13" r="1.42"/><circle class="cls-1" cx="58.76" cy="31.13" r="1.42"/><circle class="cls-1" cx="70.22" cy="31.13" r="1.42"/><circle class="cls-1" cx="81.69" cy="31.13" r="1.42"/><circle class="cls-1" cx="93.16" cy="31.13" r="1.42"/><circle class="cls-1" cx="104.63" cy="31.13" r="1.42"/><circle class="cls-1" cx="116.09" cy="31.13" r="1.42"/><circle class="cls-1" cx="127.56" cy="31.13" r="1.42"/><circle class="cls-1" cx="139.03" cy="31.13" r="1.42"/><circle class="cls-1" cx="150.5" cy="31.13" r="1.42"/><circle class="cls-1" cx="161.96" cy="31.13" r="1.42"/><circle class="cls-1" cx="173.43" cy="31.13" r="1.42"/><circle class="cls-1" cx="184.9" cy="31.13" r="1.42"/><circle class="cls-1" cx="1.42" cy="41.04" r="1.42"/><circle class="cls-1" cx="12.88" cy="41.04" r="1.42"/><circle class="cls-1" cx="24.35" cy="41.04" r="1.42"/><circle class="cls-1" cx="35.82" cy="41.04" r="1.42"/><circle class="cls-1" cx="47.29" cy="41.04" r="1.42"/><circle class="cls-1" cx="58.76" cy="41.04" r="1.42"/><circle class="cls-1" cx="70.22" cy="41.04" r="1.42"/><circle class="cls-1" cx="81.69" cy="41.04" r="1.42"/><circle class="cls-1" cx="93.16" cy="41.04" r="1.42"/><circle class="cls-1" cx="104.63" cy="41.04" r="1.42"/><circle class="cls-1" cx="116.09" cy="41.04" r="1.42"/><circle class="cls-1" cx="127.56" cy="41.04" r="1.42"/><circle class="cls-1" cx="139.03" cy="41.04" r="1.42"/><circle class="cls-1" cx="150.5" cy="41.04" r="1.42"/><circle class="cls-1" cx="161.96" cy="41.04" r="1.42"/><circle class="cls-1" cx="173.43" cy="41.04" r="1.42"/><circle class="cls-1" cx="184.9" cy="41.04" r="1.42"/><circle class="cls-1" cx="1.42" cy="50.94" r="1.42"/><circle class="cls-1" cx="12.88" cy="50.94" r="1.42"/><circle class="cls-1" cx="24.35" cy="50.94" r="1.42"/><circle class="cls-1" cx="35.82" cy="50.94" r="1.42"/><circle class="cls-1" cx="47.29" cy="50.94" r="1.42"/><circle class="cls-1" cx="58.76" cy="50.94" r="1.42"/><circle class="cls-1" cx="70.22" cy="50.94" r="1.42"/><circle class="cls-1" cx="81.69" cy="50.94" r="1.42"/><circle class="cls-1" cx="93.16" cy="50.94" r="1.42"/><circle class="cls-1" cx="104.63" cy="50.94" r="1.42"/><circle class="cls-1" cx="116.09" cy="50.94" r="1.42"/><circle class="cls-1" cx="127.56" cy="50.94" r="1.42"/><circle class="cls-1" cx="139.03" cy="50.94" r="1.42"/><circle class="cls-1" cx="150.5" cy="50.94" r="1.42"/><circle class="cls-1" cx="161.96" cy="50.94" r="1.42"/><circle class="cls-1" cx="173.43" cy="50.94" r="1.42"/><circle class="cls-1" cx="184.9" cy="50.94" r="1.42"/><circle class="cls-1" cx="1.42" cy="60.85" r="1.42"/><circle class="cls-1" cx="12.88" cy="60.85" r="1.42"/><circle class="cls-1" cx="24.35" cy="60.85" r="1.42"/><circle class="cls-1" cx="35.82" cy="60.85" r="1.42"/><circle class="cls-1" cx="47.29" cy="60.85" r="1.42"/><circle class="cls-1" cx="58.76" cy="60.85" r="1.42"/><circle class="cls-1" cx="70.22" cy="60.85" r="1.42"/><circle class="cls-1" cx="81.69" cy="60.85" r="1.42"/><circle class="cls-1" cx="93.16" cy="60.85" r="1.42"/><circle class="cls-1" cx="104.63" cy="60.85" r="1.42"/><circle class="cls-1" cx="116.09" cy="60.85" r="1.42"/><circle class="cls-1" cx="127.56" cy="60.85" r="1.42"/><circle class="cls-1" cx="139.03" cy="60.85" r="1.42"/><circle class="cls-1" cx="150.5" cy="60.85" r="1.42"/><circle class="cls-1" cx="161.96" cy="60.85" r="1.42"/><circle class="cls-1" cx="173.43" cy="60.85" r="1.42"/><circle class="cls-1" cx="184.9" cy="60.85" r="1.42"/><circle class="cls-1" cx="1.42" cy="70.75" r="1.42"/><circle class="cls-1" cx="12.88" cy="70.75" r="1.42"/><circle class="cls-1" cx="24.35" cy="70.75" r="1.42"/><circle class="cls-1" cx="35.82" cy="70.75" r="1.42"/><circle class="cls-1" cx="47.29" cy="70.75" r="1.42"/><circle class="cls-1" cx="58.76" cy="70.75" r="1.42"/><circle class="cls-1" cx="70.22" cy="70.75" r="1.42"/><circle class="cls-1" cx="81.69" cy="70.75" r="1.42"/><circle class="cls-1" cx="93.16" cy="70.75" r="1.42"/><circle class="cls-1" cx="104.63" cy="70.75" r="1.42"/><circle class="cls-1" cx="116.09" cy="70.75" r="1.42"/><circle class="cls-1" cx="127.56" cy="70.75" r="1.42"/><circle class="cls-1" cx="139.03" cy="70.75" r="1.42"/><circle class="cls-1" cx="150.5" cy="70.75" r="1.42"/><circle class="cls-1" cx="161.96" cy="70.75" r="1.42"/><circle class="cls-1" cx="173.43" cy="70.75" r="1.42"/><circle class="cls-1" cx="184.9" cy="70.75" r="1.42"/><circle class="cls-1" cx="1.42" cy="80.66" r="1.42"/><circle class="cls-1" cx="12.88" cy="80.66" r="1.42"/><circle class="cls-1" cx="24.35" cy="80.66" r="1.42"/><circle class="cls-1" cx="35.82" cy="80.66" r="1.42"/><circle class="cls-1" cx="47.29" cy="80.66" r="1.42"/><circle class="cls-1" cx="58.76" cy="80.66" r="1.42"/><circle class="cls-1" cx="70.22" cy="80.66" r="1.42"/><circle class="cls-1" cx="81.69" cy="80.66" r="1.42"/><circle class="cls-1" cx="93.16" cy="80.66" r="1.42"/><circle class="cls-1" cx="104.63" cy="80.66" r="1.42"/><circle class="cls-1" cx="116.09" cy="80.66" r="1.42"/><circle class="cls-1" cx="127.56" cy="80.66" r="1.42"/><circle class="cls-1" cx="139.03" cy="80.66" r="1.42"/><circle class="cls-1" cx="150.5" cy="80.66" r="1.42"/><circle class="cls-1" cx="161.96" cy="80.66" r="1.42"/><circle class="cls-1" cx="173.43" cy="80.66" r="1.42"/><circle class="cls-1" cx="184.9" cy="80.66" r="1.42"/><circle class="cls-1" cx="1.42" cy="90.56" r="1.42"/><circle class="cls-1" cx="12.88" cy="90.56" r="1.42"/><circle class="cls-1" cx="24.35" cy="90.56" r="1.42"/><circle class="cls-1" cx="35.82" cy="90.56" r="1.42"/><circle class="cls-1" cx="47.29" cy="90.56" r="1.42"/><circle class="cls-1" cx="58.76" cy="90.56" r="1.42"/><circle class="cls-1" cx="70.22" cy="90.56" r="1.42"/><circle class="cls-1" cx="81.69" cy="90.56" r="1.42"/><circle class="cls-1" cx="93.16" cy="90.56" r="1.42"/><circle class="cls-1" cx="104.63" cy="90.56" r="1.42"/><circle class="cls-1" cx="116.09" cy="90.56" r="1.42"/><circle class="cls-1" cx="127.56" cy="90.56" r="1.42"/><circle class="cls-1" cx="139.03" cy="90.56" r="1.42"/><circle class="cls-1" cx="150.5" cy="90.56" r="1.42"/><circle class="cls-1" cx="161.96" cy="90.56" r="1.42"/><circle class="cls-1" cx="173.43" cy="90.56" r="1.42"/><circle class="cls-1" cx="184.9" cy="90.56" r="1.42"/><circle class="cls-1" cx="1.42" cy="100.47" r="1.42"/><circle class="cls-1" cx="12.88" cy="100.47" r="1.42"/><circle class="cls-1" cx="24.35" cy="100.47" r="1.42"/><circle class="cls-1" cx="35.82" cy="100.47" r="1.42"/><circle class="cls-1" cx="47.29" cy="100.47" r="1.42"/><circle class="cls-1" cx="58.76" cy="100.47" r="1.42"/><circle class="cls-1" cx="70.22" cy="100.47" r="1.42"/><circle class="cls-1" cx="81.69" cy="100.47" r="1.42"/><circle class="cls-1" cx="93.16" cy="100.47" r="1.42"/><circle class="cls-1" cx="104.63" cy="100.47" r="1.42"/><circle class="cls-1" cx="116.09" cy="100.47" r="1.42"/><circle class="cls-1" cx="127.56" cy="100.47" r="1.42"/><circle class="cls-1" cx="139.03" cy="100.47" r="1.42"/><circle class="cls-1" cx="150.5" cy="100.47" r="1.42"/><circle class="cls-1" cx="161.96" cy="100.47" r="1.42"/><circle class="cls-1" cx="173.43" cy="100.47" r="1.42"/><circle class="cls-1" cx="184.9" cy="100.47" r="1.42"/><circle class="cls-1" cx="1.42" cy="110.37" r="1.42"/><circle class="cls-1" cx="12.88" cy="110.37" r="1.42"/><circle class="cls-1" cx="24.35" cy="110.37" r="1.42"/><circle class="cls-1" cx="35.82" cy="110.37" r="1.42"/><circle class="cls-1" cx="47.29" cy="110.37" r="1.42"/><circle class="cls-1" cx="58.76" cy="110.37" r="1.42"/><circle class="cls-1" cx="70.22" cy="110.37" r="1.42"/><circle class="cls-1" cx="81.69" cy="110.37" r="1.42"/><circle class="cls-1" cx="93.16" cy="110.37" r="1.42"/><circle class="cls-1" cx="104.63" cy="110.37" r="1.42"/><circle class="cls-1" cx="116.09" cy="110.37" r="1.42"/><circle class="cls-1" cx="127.56" cy="110.37" r="1.42"/><circle class="cls-1" cx="139.03" cy="110.37" r="1.42"/><circle class="cls-1" cx="150.5" cy="110.37" r="1.42"/><circle class="cls-1" cx="161.96" cy="110.37" r="1.42"/><circle class="cls-1" cx="173.43" cy="110.37" r="1.42"/><circle class="cls-1" cx="184.9" cy="110.37" r="1.42"/><circle class="cls-1" cx="1.42" cy="120.28" r="1.42"/><circle class="cls-1" cx="12.88" cy="120.28" r="1.42"/><circle class="cls-1" cx="24.35" cy="120.28" r="1.42"/><circle class="cls-1" cx="35.82" cy="120.28" r="1.42"/><circle class="cls-1" cx="47.29" cy="120.28" r="1.42"/><circle class="cls-1" cx="58.76" cy="120.28" r="1.42"/><circle class="cls-1" cx="70.22" cy="120.28" r="1.42"/><circle class="cls-1" cx="81.69" cy="120.28" r="1.42"/><circle class="cls-1" cx="93.16" cy="120.28" r="1.42"/><circle class="cls-1" cx="104.63" cy="120.28" r="1.42"/><circle class="cls-1" cx="116.09" cy="120.28" r="1.42"/><circle class="cls-1" cx="127.56" cy="120.28" r="1.42"/><circle class="cls-1" cx="139.03" cy="120.28" r="1.42"/><circle class="cls-1" cx="150.5" cy="120.28" r="1.42"/><circle class="cls-1" cx="161.96" cy="120.28" r="1.42"/><circle class="cls-1" cx="173.43" cy="120.28" r="1.42"/><circle class="cls-1" cx="184.9" cy="120.28" r="1.42"/><circle class="cls-1" cx="1.42" cy="130.18" r="1.42"/><circle class="cls-1" cx="12.88" cy="130.18" r="1.42"/><circle class="cls-1" cx="24.35" cy="130.18" r="1.42"/><circle class="cls-1" cx="35.82" cy="130.18" r="1.42"/><circle class="cls-1" cx="47.29" cy="130.18" r="1.42"/><circle class="cls-1" cx="58.76" cy="130.18" r="1.42"/><circle class="cls-1" cx="70.22" cy="130.18" r="1.42"/><circle class="cls-1" cx="81.69" cy="130.18" r="1.42"/><circle class="cls-1" cx="93.16" cy="130.18" r="1.42"/><circle class="cls-1" cx="104.63" cy="130.18" r="1.42"/><circle class="cls-1" cx="116.09" cy="130.18" r="1.42"/><circle class="cls-1" cx="127.56" cy="130.18" r="1.42"/><circle class="cls-1" cx="139.03" cy="130.18" r="1.42"/><circle class="cls-1" cx="150.5" cy="130.18" r="1.42"/><circle class="cls-1" cx="161.96" cy="130.18" r="1.42"/><circle class="cls-1" cx="173.43" cy="130.18" r="1.42"/><circle class="cls-1" cx="184.9" cy="130.18" r="1.42"/><circle class="cls-1" cx="1.42" cy="140.09" r="1.42"/><circle class="cls-1" cx="12.88" cy="140.09" r="1.42"/><circle class="cls-1" cx="24.35" cy="140.09" r="1.42"/><circle class="cls-1" cx="35.82" cy="140.09" r="1.42"/><circle class="cls-1" cx="47.29" cy="140.09" r="1.42"/><circle class="cls-1" cx="58.76" cy="140.09" r="1.42"/><circle class="cls-1" cx="70.22" cy="140.09" r="1.42"/><circle class="cls-1" cx="81.69" cy="140.09" r="1.42"/><circle class="cls-1" cx="93.16" cy="140.09" r="1.42"/><circle class="cls-1" cx="104.63" cy="140.09" r="1.42"/><circle class="cls-1" cx="116.09" cy="140.09" r="1.42"/><circle class="cls-1" cx="127.56" cy="140.09" r="1.42"/><circle class="cls-1" cx="139.03" cy="140.09" r="1.42"/><circle class="cls-1" cx="150.5" cy="140.09" r="1.42"/><circle class="cls-1" cx="161.96" cy="140.09" r="1.42"/><circle class="cls-1" cx="173.43" cy="140.09" r="1.42"/><circle class="cls-1" cx="184.9" cy="140.09" r="1.42"/><circle class="cls-1" cx="1.42" cy="149.99" r="1.42"/><circle class="cls-1" cx="12.88" cy="149.99" r="1.42"/><circle class="cls-1" cx="24.35" cy="149.99" r="1.42"/><circle class="cls-1" cx="35.82" cy="149.99" r="1.42"/><circle class="cls-1" cx="47.29" cy="149.99" r="1.42"/><circle class="cls-1" cx="58.76" cy="149.99" r="1.42"/><circle class="cls-1" cx="70.22" cy="149.99" r="1.42"/><circle class="cls-1" cx="81.69" cy="149.99" r="1.42"/><circle class="cls-1" cx="93.16" cy="149.99" r="1.42"/><circle class="cls-1" cx="104.63" cy="149.99" r="1.42"/><circle class="cls-1" cx="116.09" cy="149.99" r="1.42"/><circle class="cls-1" cx="127.56" cy="149.99" r="1.42"/><circle class="cls-1" cx="139.03" cy="149.99" r="1.42"/><circle class="cls-1" cx="150.5" cy="149.99" r="1.42"/><circle class="cls-1" cx="161.96" cy="149.99" r="1.42"/><circle class="cls-1" cx="173.43" cy="149.99" r="1.42"/><circle class="cls-1" cx="184.9" cy="149.99" r="1.42"/><circle class="cls-1" cx="1.42" cy="159.9" r="1.42"/><circle class="cls-1" cx="12.88" cy="159.9" r="1.42"/><circle class="cls-1" cx="24.35" cy="159.9" r="1.42"/><circle class="cls-1" cx="35.82" cy="159.9" r="1.42"/><circle class="cls-1" cx="47.29" cy="159.9" r="1.42"/><circle class="cls-1" cx="58.76" cy="159.9" r="1.42"/><circle class="cls-1" cx="70.22" cy="159.9" r="1.42"/><circle class="cls-1" cx="81.69" cy="159.9" r="1.42"/><circle class="cls-1" cx="93.16" cy="159.9" r="1.42"/><circle class="cls-1" cx="104.63" cy="159.9" r="1.42"/><circle class="cls-1" cx="116.09" cy="159.9" r="1.42"/><circle class="cls-1" cx="127.56" cy="159.9" r="1.42"/><circle class="cls-1" cx="139.03" cy="159.9" r="1.42"/><circle class="cls-1" cx="150.5" cy="159.9" r="1.42"/><circle class="cls-1" cx="161.96" cy="159.9" r="1.42"/><circle class="cls-1" cx="173.43" cy="159.9" r="1.42"/><circle class="cls-1" cx="184.9" cy="159.9" r="1.42"/></g></svg>