<?xml version="1.0" encoding="UTF-8"?>
<svg id="Layer_2" data-name="Layer 2" xmlns="http://www.w3.org/2000/svg" viewBox="0 0 425.2 425.2">
  <defs>
    <style>
      .cls-1 {
        fill: #fa0f00;
      }

      .cls-2 {
        fill: #fff;
      }
    </style>
  </defs>
  <g id="Layer_1-2" data-name="Layer 1">
    <g id="Document_Cloud" data-name="Document Cloud">
      <path id="_21" data-name=" 21" class="cls-1" d="m0,66.44C0,29.74,29.74,0,66.44,0h292.32c36.69,0,66.44,29.74,66.44,66.44v292.32c0,36.69-29.74,66.44-66.44,66.44H66.44c-36.69,0-66.44-29.74-66.44-66.44V66.44Z"/>
      <rect id="_11" data-name=" 11" class="cls-1" width="425.2" height="425.2" rx="66.44" ry="66.44"/>
      <path id="_22" data-name=" 22" class="cls-2" d="m346.95,252.24c-20.97-21.78-78.24-12.91-91.96-11.29-15.08-15.17-28.1-32.26-38.72-50.82,7.54-21.57,11.89-44.12,12.91-66.95,0-20.17-8.07-41.94-30.65-41.94-7.95.23-15.24,4.49-19.36,11.29-9.68,16.94-5.65,50.82,9.68,85.5-10.51,31.73-23.74,62.49-39.53,91.96-23.39,9.68-72.6,32.27-76.63,56.47-1.53,7.39.92,15.04,6.45,20.17,5.64,4.74,12.79,7.31,20.16,7.26,29.84,0,58.88-41.14,79.06-75.82,22.94-7.76,46.39-13.96,70.17-18.55,31.46,27.43,58.88,31.46,73.41,31.46,19.36,0,26.62-8.07,29.04-15.33,3.62-7.88,2.01-17.18-4.05-23.39Zm-20.16,13.71c-.81,5.65-8.07,11.29-20.97,8.07-15.04-4.02-29.05-11.16-41.14-20.97,10.49-1.61,33.88-4.03,50.82-.81,6.44,1.61,12.9,5.64,11.28,13.71ZM192.08,99.79c1.36-2.32,3.77-3.82,6.45-4.03,7.26,0,8.87,8.87,8.87,16.13-.8,17.05-4.06,33.89-9.68,50.01-12.1-32.27-9.68-54.85-5.65-62.11Zm-1.61,156.49c7-14.71,13.19-29.79,18.55-45.18,7.45,11.88,16.1,22.96,25.81,33.07,0,.81-25,5.65-44.36,12.1h0Zm-47.59,32.26c-18.55,30.65-37.91,50.01-48.4,50.01-1.71-.17-3.37-.72-4.84-1.61-2.41-1.56-3.41-4.57-2.42-7.26,2.42-11.29,23.4-26.62,55.66-41.14Z"/>
    </g>
  </g>
</svg>