<?xml version="1.0" encoding="UTF-8"?><svg id="Layer_2" xmlns="http://www.w3.org/2000/svg" viewBox="0 0 108.43 145.75"><g id="Layer_1-2"><path d="M88.88,23.81C75.75,1.06,46.56-6.76,23.81,6.37,1.06,19.51-6.76,48.7,6.37,71.44c11.47,19.87,35.19,28.35,56.17,21.42,.18,.48,.39,.95,.66,1.4l26.88,46.56c2.71,4.69,8.75,6.31,13.44,3.6h0c4.69-2.71,6.31-8.75,3.6-13.44l-26.88-46.56c-.26-.46-.57-.87-.89-1.27,16.48-14.71,21-39.49,9.53-59.36Zm-22.44,56.41c-17.97,10.38-41.04,4.2-51.41-13.78S10.84,25.41,28.81,15.03s41.03-4.2,51.41,13.78c10.38,17.97,4.2,41.03-13.78,51.41Z"/></g></svg>