<svg id="Layer_1" data-name="Layer 1" xmlns="http://www.w3.org/2000/svg" viewBox="0 0 724.8 35.75"><defs><style>.cls-1{fill:none;stroke:#fff;}</style></defs><title>together</title><path class="cls-1" d="M110.37-202.79h21v6.32H124.5v27.39h-7.41v-27.39h-6.72Z" transform="translate(-109.87 203.81)"/><path class="cls-1" d="M160.75-185.94q0,17.38-12.23,17.38-6.08,0-9.16-4.43t-3.09-12.95q0-17.37,12.23-17.37,6,0,9.11,4.35T160.75-185.94Zm-7.81,0c0-4.55-.35-7.57-1.06-9.08a3.52,3.52,0,0,0-3.38-2.26,3.52,3.52,0,0,0-3.36,2.27q-1.06,2.28-1.06,9.07c0,4.44.35,7.45,1,9a3.51,3.51,0,0,0,3.37,2.35,3.54,3.54,0,0,0,3.37-2.25C152.59-178.33,152.94-181.37,152.94-185.94Z" transform="translate(-109.87 203.81)"/><path class="cls-1" d="M180.77-187.06h11.71v18h-3.14l-1-3.85a9,9,0,0,1-8.15,4.37,10.76,10.76,0,0,1-9.12-4.53q-3.37-4.53-3.38-12.19,0-8.33,3.33-13.17t9.81-4.86q10.35,0,11.61,11.56l-6.67,1.09q-.69-6.61-4.79-6.62a4.52,4.52,0,0,0-4,2.44q-1.49,2.44-1.49,9.27c0,4,.48,6.87,1.46,8.52a4.68,4.68,0,0,0,4.27,2.47c3,0,4.53-2.24,4.54-6.7h-5Z" transform="translate(-109.87 203.81)"/><path class="cls-1" d="M201.29-202.79h20.5V-197H208.7v7.83h10.18v5.78H208.7v8.3h13.09v6h-20.5Z" transform="translate(-109.87 203.81)"/><path class="cls-1" d="M224.68-202.79h21v6.32h-6.9v27.39h-7.4v-27.39h-6.72Z" transform="translate(-109.87 203.81)"/><path class="cls-1" d="M251.3-202.79h7.41v13.61h8.1v-13.61h7.41v33.71h-7.41v-13.78h-8.1v13.78H251.3Z" transform="translate(-109.87 203.81)"/><path class="cls-1" d="M283.62-202.79h20.5V-197H291v7.83h10.18v5.78H291v8.3h13.09v6h-20.5Z" transform="translate(-109.87 203.81)"/><path class="cls-1" d="M310.79-202.79h10.59a29.42,29.42,0,0,1,4.73.29,7.86,7.86,0,0,1,3.32,1.53,8.2,8.2,0,0,1,2.63,3.41,11.79,11.79,0,0,1,.95,4.85q0,6.32-4.74,8.89l6.2,14.74h-8.06l-4.51-13.33h-3.7v13.33h-7.41Zm7.41,5.46v9.46h3.26q4.34,0,4.34-4.87a5.28,5.28,0,0,0-.64-2.75,3.51,3.51,0,0,0-1.49-1.46,6.51,6.51,0,0,0-2.51-.38Z" transform="translate(-109.87 203.81)"/><path class="cls-1" d="M353.85-202.79h20V-197h-12.6v8.82H371v5.78h-9.71v13.33h-7.41Z" transform="translate(-109.87 203.81)"/><path class="cls-1" d="M403-185.94q0,17.38-12.22,17.38-6.07,0-9.16-4.43t-3.09-12.95q0-17.37,12.23-17.37,6,0,9.11,4.35T403-185.94Zm-7.8,0c0-4.55-.35-7.57-1.06-9.08a3.53,3.53,0,0,0-3.38-2.26,3.5,3.5,0,0,0-3.36,2.27q-1.06,2.28-1.07,9.07c0,4.44.35,7.45,1.05,9a3.53,3.53,0,0,0,3.38,2.35,3.54,3.54,0,0,0,3.37-2.25Q395.18-179.08,395.19-185.94Z" transform="translate(-109.87 203.81)"/><path class="cls-1" d="M411.19-202.79h10.6a29.6,29.6,0,0,1,4.73.29,7.91,7.91,0,0,1,3.32,1.53,8.28,8.28,0,0,1,2.63,3.41,12,12,0,0,1,.95,4.85q0,6.32-4.74,8.89l6.2,14.74h-8.07l-4.51-13.33h-3.7v13.33h-7.41Zm7.41,5.46v9.46h3.26q4.35,0,4.35-4.87a5.28,5.28,0,0,0-.65-2.75,3.41,3.41,0,0,0-1.49-1.46,6.47,6.47,0,0,0-2.51-.38Z" transform="translate(-109.87 203.81)"/><path class="cls-1" d="M460.21-202.79h7.46l9.63,33.71h-7.58L468-176h-9.5l-1.65,7h-6.81Zm6.44,21-3.41-13.81L460-181.82Z" transform="translate(-109.87 203.81)"/><path class="cls-1" d="M495.62-202.79h11.51a22.22,22.22,0,0,1,6.11.64,6.4,6.4,0,0,1,3.46,2.82,9.82,9.82,0,0,1,1.39,5.41q0,5.65-4.81,7.26,5.72,2,5.72,8.27a9.54,9.54,0,0,1-1.55,5.55,7.52,7.52,0,0,1-3.84,3,21.77,21.77,0,0,1-6.48.75H495.62Zm7.11,13.61h2.4c2.38,0,3.89-.43,4.5-1.28a4.9,4.9,0,0,0,.93-2.94,4.34,4.34,0,0,0-.93-2.73c-.61-.8-1.94-1.2-4-1.2h-2.94Zm0,14.32h3.63q5.11,0,5.11-4.4a4.16,4.16,0,0,0-1.27-3.46,6.14,6.14,0,0,0-3.84-1h-3.63Z" transform="translate(-109.87 203.81)"/><path class="cls-1" d="M527.08-202.79h20.49V-197H534.49v7.83h10.17v5.78H534.49v8.3h13.08v6H527.08Z" transform="translate(-109.87 203.81)"/><path class="cls-1" d="M550.46-202.79h21v6.32h-6.89v27.39h-7.41v-27.39h-6.72Z" transform="translate(-109.87 203.81)"/><path class="cls-1" d="M573.3-202.79h21v6.32h-6.89v27.39H580v-27.39H573.3Z" transform="translate(-109.87 203.81)"/><path class="cls-1" d="M599.92-202.79h20.5V-197H607.33v7.83h10.18v5.78H607.33v8.3h13.09v6h-20.5Z" transform="translate(-109.87 203.81)"/><path class="cls-1" d="M627.09-202.79h10.59a29.42,29.42,0,0,1,4.73.29,7.86,7.86,0,0,1,3.32,1.53,8.2,8.2,0,0,1,2.63,3.41,11.79,11.79,0,0,1,.95,4.85q0,6.32-4.74,8.89l6.2,14.74h-8.06l-4.51-13.33h-3.7v13.33h-7.41Zm7.41,5.46v9.46h3.26q4.34,0,4.34-4.87a5.28,5.28,0,0,0-.64-2.75,3.51,3.51,0,0,0-1.49-1.46,6.51,6.51,0,0,0-2.51-.38Z" transform="translate(-109.87 203.81)"/><path class="cls-1" d="M670.15-202.79h20V-197h-12.6v8.82h9.71v5.78h-9.71v13.33h-7.41Z" transform="translate(-109.87 203.81)"/><path class="cls-1" d="M695.59-202.79H703v19.27a29.85,29.85,0,0,0,.37,5.68,3.94,3.94,0,0,0,1.55,2.43,4.87,4.87,0,0,0,2.88.83,4.44,4.44,0,0,0,2.94-.92,3.89,3.89,0,0,0,1.33-2.42,41.9,41.9,0,0,0,.25-5.6v-19.27h6.19v19a40,40,0,0,1-.65,8.47,8.34,8.34,0,0,1-3.33,4.79,12.07,12.07,0,0,1-7.38,2,13.73,13.73,0,0,1-6.91-1.47,8.18,8.18,0,0,1-3.58-4.12c-.71-1.77-1.06-4.9-1.06-9.37Z" transform="translate(-109.87 203.81)"/><path class="cls-1" d="M724.13-202.79h21v6.32h-6.89v27.39h-7.41v-27.39h-6.72Z" transform="translate(-109.87 203.81)"/><path class="cls-1" d="M750.75-202.79h7.41v19.27a29,29,0,0,0,.37,5.68,3.93,3.93,0,0,0,1.54,2.43,4.92,4.92,0,0,0,2.88.83,4.4,4.4,0,0,0,2.94-.92,3.85,3.85,0,0,0,1.33-2.42,40.21,40.21,0,0,0,.25-5.6v-19.27h6.2v19a40.68,40.68,0,0,1-.65,8.47,8.31,8.31,0,0,1-3.34,4.79,12,12,0,0,1-7.37,2A13.7,13.7,0,0,1,755.4-170a8.2,8.2,0,0,1-3.59-4.12c-.7-1.77-1.06-4.9-1.06-9.37Z" transform="translate(-109.87 203.81)"/><path class="cls-1" d="M783.08-202.79h10.59a29.42,29.42,0,0,1,4.73.29,7.86,7.86,0,0,1,3.32,1.53,8.2,8.2,0,0,1,2.63,3.41,11.79,11.79,0,0,1,.95,4.85q0,6.32-4.74,8.89l6.2,14.74H798.7l-4.51-13.33h-3.7v13.33h-7.41Zm7.41,5.46v9.46h3.26q4.34,0,4.34-4.87a5.28,5.28,0,0,0-.64-2.75,3.51,3.51,0,0,0-1.49-1.46,6.51,6.51,0,0,0-2.51-.38Z" transform="translate(-109.87 203.81)"/><path class="cls-1" d="M813.67-202.79h20.5V-197H821.08v7.83h10.18v5.78H821.08v8.3h13.09v6h-20.5Z" transform="translate(-109.87 203.81)"/></svg>