<?xml version="1.0" encoding="UTF-8"?><svg id="Layer_2" xmlns="http://www.w3.org/2000/svg" viewBox="0 0 31.13 31.13"><defs><style>.cls-1{fill:#fff;}.cls-2{fill:#f60;}</style></defs><g id="Layer_1-2"><circle class="cls-1" cx="15.57" cy="15.57" r="15.57"/><path class="cls-2" d="m6.76,20.43h20.19c.64-1.49.99-3.13.99-4.86s-.36-3.37-.99-4.86H6.76v9.72Z"/><path class="cls-2" d="m5.94,22.12c-.75-.18-1.13-.42-1.13-.7v-11.74c0-.29.38-.52,1.13-.7.96-.2,1.94-.29,2.92-.27h17c-2.22-3.32-6-5.51-10.29-5.51-6.83,0-12.37,5.54-12.37,12.37s5.54,12.37,12.37,12.37c4.31,0,8.1-2.21,10.32-5.55H8.86c-.98.02-1.96-.07-2.92-.27Z"/><path class="cls-1" d="m6.76,20.43v-9.72h20.19c-.3-.7-.66-1.37-1.08-2H8.86c-.98-.02-1.96.07-2.92.27-.75.18-1.13.41-1.13.7v11.74c0,.28.38.52,1.13.7.96.2,1.94.29,2.92.27h17.03c.41-.62.77-1.27,1.06-1.96H6.76Z"/></g></svg>