<svg xmlns="http://www.w3.org/2000/svg" xmlns:xlink="http://www.w3.org/1999/xlink" viewBox="0 0 369.23 274.76"><defs><style>.cls-1{fill:none;}.cls-2{fill:#272525;}.cls-3{fill:url(#_10_dpi_40_);}.cls-4{fill:#fff;}</style><pattern id="_10_dpi_40_" data-name="10 dpi 40%" width="28.8" height="28.8" patternTransform="translate(1108.7 188.81) scale(0.97)" patternUnits="userSpaceOnUse" viewBox="0 0 28.8 28.8"><rect class="cls-1" width="28.8" height="28.8"/><path class="cls-2" d="M28.8,31.68a2.88,2.88,0,1,0-2.88-2.88A2.88,2.88,0,0,0,28.8,31.68Z"/><path class="cls-2" d="M14.4,31.68a2.88,2.88,0,1,0-2.88-2.88A2.88,2.88,0,0,0,14.4,31.68Z"/><path class="cls-2" d="M28.8,17.28a2.88,2.88,0,1,0-2.88-2.88A2.88,2.88,0,0,0,28.8,17.28Z"/><path class="cls-2" d="M14.4,17.28a2.88,2.88,0,1,0-2.88-2.88A2.88,2.88,0,0,0,14.4,17.28Z"/><path class="cls-2" d="M7.2,24.48A2.88,2.88,0,1,0,4.32,21.6,2.88,2.88,0,0,0,7.2,24.48Z"/><path class="cls-2" d="M21.6,24.48a2.88,2.88,0,1,0-2.88-2.88A2.88,2.88,0,0,0,21.6,24.48Z"/><path class="cls-2" d="M7.2,10.08A2.88,2.88,0,1,0,4.32,7.2,2.88,2.88,0,0,0,7.2,10.08Z"/><path class="cls-2" d="M21.6,10.08A2.88,2.88,0,1,0,18.72,7.2,2.88,2.88,0,0,0,21.6,10.08Z"/><path class="cls-2" d="M0,31.68A2.88,2.88,0,0,0,2.88,28.8,2.88,2.88,0,0,0,0,25.92a2.88,2.88,0,0,0,0,5.76Z"/><path class="cls-2" d="M0,17.28A2.88,2.88,0,0,0,2.88,14.4,2.88,2.88,0,0,0,0,11.52a2.88,2.88,0,0,0,0,5.76Z"/><path class="cls-2" d="M28.8,2.88A2.88,2.88,0,0,0,31.68,0a2.88,2.88,0,0,0-5.76,0A2.88,2.88,0,0,0,28.8,2.88Z"/><path class="cls-2" d="M14.4,2.88A2.88,2.88,0,0,0,17.28,0a2.88,2.88,0,0,0-5.76,0A2.88,2.88,0,0,0,14.4,2.88Z"/><path class="cls-2" d="M0,2.88A2.88,2.88,0,0,0,2.88,0,2.88,2.88,0,0,0,0-2.88,2.88,2.88,0,0,0-2.88,0,2.88,2.88,0,0,0,0,2.88Z"/></pattern></defs><title>Asset 1</title><g id="Layer_2" data-name="Layer 2"><g id="Graphic_Element" data-name="Graphic Element"><path class="cls-3" d="M126.45,218.48c-54.44-6.8-79.38-43.91-80.09-74C45.17,94.1,94.81,62.6,137.6,49.75c43.16-13,90.46-13.3,134-1.8,37.69,10,91.48,32.28,97.21,76.74,2.69,20.87-7.08,42-21.35,56.74-38.39,39.68-105.18,52.75-158,46.69-1.38,16.72,5.82,36.65,19.29,46.64C175.55,271.27,141.2,248.43,126.45,218.48Z"/><path class="cls-2" d="M99.75,180c-54-9.76-76.87-48.17-75.95-78.24,1.56-50.37,52.84-79.13,96.27-89.62,43.8-10.59,91.05-8.36,133.87,5.5,37.09,12,89.59,37.21,92.89,81.91,1.55,21-9.36,41.54-24.41,55.49-40.5,37.53-107.9,46.94-160.29,38-2.29,16.62,3.81,36.9,16.72,47.62C145.9,235.36,112.84,210.69,99.75,180Z"/><path class="cls-4" d="M91.11,183.14c-54.44-6.8-79.38-43.92-80.09-74-1.2-50.39,48.44-81.9,91.24-94.74,43.16-13,90.46-13.3,134-1.8,37.69,10,91.48,32.28,97.21,76.74,2.69,20.87-7.08,42-21.35,56.73-38.4,39.69-105.18,52.75-158,46.7-1.38,16.72,5.82,36.65,19.29,46.64C140.21,235.93,105.86,213.09,91.11,183.14Z"/><path class="cls-2" d="M336.4,85.07c-4.49-22.82-21.86-39.89-41-51.69C275.74,21.23,253.23,13.32,230.79,8a256.18,256.18,0,0,0-98.49-3.8C105.85,8.39,79.89,16.77,57,30.85c-20.13,12.38-38.33,30-46,52.86A71.16,71.16,0,0,0,8,116.28a72.85,72.85,0,0,0,9.36,26.12C29,162.28,49.1,175.73,70.93,182.18A126.41,126.41,0,0,0,88.69,186c12.86,24.29,36.19,42.45,61.94,51.46a103.32,103.32,0,0,0,22.91,5.17c2.84.3,5-3.37,2.42-5.28-12.38-9.3-18.53-25.72-18.29-41a233.28,233.28,0,0,0,74.42-4.76c25.61-5.84,50.74-16.16,71.33-32.72,10.77-8.67,20.28-19,26.47-31.48C336.42,114.22,339.26,99.57,336.4,85.07Zm-7.22,21.57a74.25,74.25,0,0,1-19.06,36.29c-17.24,18.28-40.13,30.39-63.87,38a222.53,222.53,0,0,1-74.77,10q-8.78-.3-17.5-1.28a3.2,3.2,0,0,0-3.58,3c-1.13,14.53,3.54,30.68,13.21,42.06a106.48,106.48,0,0,1-56.94-34.28,87.68,87.68,0,0,1-12-17.86,3.52,3.52,0,0,0-1.76-2A4,4,0,0,0,91,180H91a105.42,105.42,0,0,1-35.87-10.89,80.93,80.93,0,0,1-13.31-8.64q-3-2.42-5.81-5.11c-.9-.87-1.78-1.76-2.64-2.68-.38-.4-.76-.81-1.13-1.23s-.46-.51-1-1.12a75.51,75.51,0,0,1-8.14-11.62,66.52,66.52,0,0,1-5.25-11.85A62.11,62.11,0,0,1,15.1,99.94c2.43-22.71,16.76-41.69,34.36-55.36C68.25,30,90.87,20.41,113.59,14.71A246.06,246.06,0,0,1,208,10a251.86,251.86,0,0,1,38.92,8.9q7.68,2.39,15.19,5.24c5.07,1.93,9.81,3.95,15,6.44a134,134,0,0,1,28,17.47C313,54.71,320,62.55,324.42,71.71A55.57,55.57,0,0,1,329.18,106.64Z"/><path class="cls-2" d="M289.06,20.48A73.07,73.07,0,0,1,300.28,25a85.42,85.42,0,0,1,10.88,6.5,82.82,82.82,0,0,1,9.34,7.72,76.39,76.39,0,0,1,8,8.92,75.09,75.09,0,0,1,7.38,11.76c1.61,3.2,8.69,1.69,6.73-2.22-7.9-15.68-21.4-28.49-36.9-36.57a88.68,88.68,0,0,0-14.17-5.91c-1.6-.51-4-.17-4.78,1.52s.74,3.26,2.26,3.74Z"/><path class="cls-2" d="M5.93,57.34A106.14,106.14,0,0,1,25.31,33.83a99.39,99.39,0,0,1,11.74-9.25c1.07-.73,2.16-1.44,3.25-2.14L41,22c1.08-.68-.62.36.48-.29.55-.33,1.11-.67,1.67-1,2.24-1.31,4.53-2.53,6.86-3.68,1.52-.75,2.26-1.09,3.76-1.75,1.3-.57,2.62-1.12,4-1.64,2.64-1,5.4-2,8.06-2.8a7.68,7.68,0,0,0,4.36-3c.7-1.13.24-2.24-1.25-1.79a122.11,122.11,0,0,0-57.3,37.11A115.87,115.87,0,0,0,.33,58.57c-.75,1.21-.17,2.09,1.24,1.8a7.35,7.35,0,0,0,4.36-3Z"/><path class="cls-2" d="M22.12,20.06A77.69,77.69,0,0,1,55.61,3.93c.68-.14-1.75-1.75-1.94-1.87A22.91,22.91,0,0,0,51.16.63C50.76.44,50-.08,49.53,0A78.64,78.64,0,0,0,15.66,16.23c-.3.25,2.74,2.2,3,2.34.5.3,2.89,2,3.49,1.49Z"/></g></g></svg>