<svg xmlns="http://www.w3.org/2000/svg" xmlns:xlink="http://www.w3.org/1999/xlink" viewBox="0 0 181.95 177.79"><defs><style>.cls-1{isolation:isolate;}.cls-2{fill:url(#Nueva_muestra_de_degradado_6);}.cls-3{fill:url(#Nueva_muestra_de_degradado_5);}.cls-4,.cls-6{opacity:0.5;}.cls-4{mix-blend-mode:multiply;}.cls-5{fill:#f44b3c;}.cls-6{mix-blend-mode:overlay;}.cls-7{fill:#fff;}</style><linearGradient id="Nueva_muestra_de_degradado_6" x1="148.2" y1="-17.78" x2="44.41" y2="172.24" gradientUnits="userSpaceOnUse"><stop offset="0.04" stop-color="#993eff"/><stop offset="0.11" stop-color="#a740e0"/><stop offset="0.21" stop-color="#bc43b5"/><stop offset="0.32" stop-color="#cd4590"/><stop offset="0.44" stop-color="#db4771"/><stop offset="0.56" stop-color="#e6495a"/><stop offset="0.68" stop-color="#ee4a49"/><stop offset="0.82" stop-color="#f34b3f"/><stop offset="1" stop-color="#f44b3c"/></linearGradient><linearGradient id="Nueva_muestra_de_degradado_5" x1="22.92" y1="183.81" x2="96.24" y2="64.54" gradientUnits="userSpaceOnUse"><stop offset="0" stop-color="#fced00"/><stop offset="0.24" stop-color="#facb0d"/><stop offset="0.77" stop-color="#f6742d"/><stop offset="1" stop-color="#f44b3c"/></linearGradient></defs><title>Asset 1</title><g class="cls-1"><g id="Layer_2" data-name="Layer 2"><g id="OBJECTS"><path class="cls-2" d="M153.54,51.05a2.48,2.48,0,0,1-1.54.53,2.51,2.51,0,0,1-2-.95c-8.39-10.69-17.65-18.84-27.53-24.25A2.5,2.5,0,0,1,124.9,22c10.47,5.73,20.25,14.32,29.06,25.54A2.49,2.49,0,0,1,153.54,51.05ZM14.88,47a26.59,26.59,0,0,0,13.34-3.78l.24-.16c3.58-2.67,7.17-5.15,10.69-7.39a2.56,2.56,0,0,0,1.08-3,2.51,2.51,0,0,0-3.68-1.22C32.94,33.71,29.26,36.25,25.6,39a21.47,21.47,0,0,1-12.1,3,2.42,2.42,0,0,0-2.31,1.25l0,0a2.48,2.48,0,0,0,2,3.68C13.71,47,14.29,47,14.88,47Zm5.76-13.75c3.52-.25,8-3.25,14.08-7.4,7.51-5.09,17.79-12,30.43-16.47a2.6,2.6,0,0,0,1.73-3.09,2.51,2.51,0,0,0-3.23-1.68c-13.33,4.63-24,11.84-31.74,17.1-2.27,1.54-4.4,3-6.26,4.12a29,29,0,0,0-6.13,5,1.43,1.43,0,0,0,1.1,2.41Zm58.6-30A2.49,2.49,0,0,0,82,5.49a74.94,74.94,0,0,1,13.65-.32c18.56,1.27,34.18,6.42,46.43,15.32a2.5,2.5,0,0,0,2.94-4C132,7,115.51,1.52,96,.19A79.63,79.63,0,0,0,81.43.52,2.5,2.5,0,0,0,79.24,3.29ZM58,53.33a54,54,0,0,1,55.45.44,2.55,2.55,0,0,0,1.32.38,2.5,2.5,0,0,0,1.33-4.63A59,59,0,0,0,55.54,49,2.5,2.5,0,0,0,58,53.33Zm87.91,80.08a2.43,2.43,0,0,0,.38,0,2.51,2.51,0,0,0,2.47-2.12,87.51,87.51,0,0,0,.07-26.15c-2.82-18.89-10.6-35.57-21.92-47a2.5,2.5,0,0,0-3.55,3.52C134,72.37,141.24,88.06,143.9,105.9a82.88,82.88,0,0,1-.07,24.66A2.5,2.5,0,0,0,145.92,133.41Zm-26.69,33.66a2.5,2.5,0,0,0,3.47-.67c11.49-16.92,16.21-33.43,15.3-53.54a2.5,2.5,0,0,0-5,.23c.85,18.95-3.6,34.53-14.45,50.51A2.5,2.5,0,0,0,119.23,167.07ZM13.53,55.44a2.5,2.5,0,0,0,.25,5l.25,0c9.81-1,19.21-6.82,29.16-13,9.32-5.8,19-11.8,30.19-14.85a2.5,2.5,0,0,0-1.31-4.83C60.14,31,49.73,37.45,40.55,43.16,31.1,49,22.18,54.58,13.53,55.44ZM152,82.82a2.5,2.5,0,0,0,1.58-3.16c-12.51-37.52-36.54-56.19-69.51-54a2.5,2.5,0,1,0,.33,5c30.87-2.05,52.56,14.95,64.43,50.57A2.52,2.52,0,0,0,151.25,83,2.47,2.47,0,0,0,152,82.82ZM50,29.14a2.5,2.5,0,0,0,1.12-.27c20.48-10.37,39.78-13.14,57.37-8.24a2.5,2.5,0,0,0,1.34-4.81c-18.83-5.25-39.34-2.36-61,8.59A2.5,2.5,0,0,0,50,29.14ZM140,158.56a88,88,0,0,0,4.88-11.51,2.58,2.58,0,0,0-1.28-3.19,2.5,2.5,0,0,0-3.41,1.46,82.15,82.15,0,0,1-4.64,11c-1.21,2.37-2.52,4.68-3.86,6.9a2.48,2.48,0,0,0,3.3,3.47l.09,0a2.44,2.44,0,0,0,.93-.9C137.42,163.41,138.77,161,140,158.56ZM163,63.75a2.5,2.5,0,0,0-3.49-1.27,2.61,2.61,0,0,0-1.09,3.29c8.26,20.55,10.68,48.17,6.17,70.41v0a1.29,1.29,0,0,0,2.36.89c1.21-1.82,2.35-3.7,3.42-5.61a1.2,1.2,0,0,0,.16-.47C173.67,109,170.88,83.32,163,63.75Zm-4.29-34.53a2.5,2.5,0,0,0-3.72-.14,2.61,2.61,0,0,0,0,3.46c12.21,14.65,19.93,35.56,23,62.23a1.52,1.52,0,0,0,3,.16,40.38,40.38,0,0,0,1-7.82C178.25,62.72,170.46,43.29,158.69,29.22Zm-.4,67.53a2.51,2.51,0,0,0-3.21-1.89,2.61,2.61,0,0,0-1.66,3,98.46,98.46,0,0,1-3.67,52.31,2.47,2.47,0,0,0,4,2.61l.08-.07a2.58,2.58,0,0,0,.65-1A103.42,103.42,0,0,0,158.29,96.75ZM7.09,90.85A2.52,2.52,0,0,0,9,89.92,2.6,2.6,0,0,0,7.91,86a38.41,38.41,0,0,1-4.2-2A2.49,2.49,0,0,0,0,86v.06a2.48,2.48,0,0,0,1.3,2.22,43.91,43.91,0,0,0,4.86,2.35A2.52,2.52,0,0,0,7.09,90.85ZM42.21,64.32a2.59,2.59,0,0,0,.73-3.38,2.5,2.5,0,0,0-3.65-.68C27.42,69.35,18.08,76.5,4.39,71a2.45,2.45,0,0,0-3.32,1.91v.05A2.47,2.47,0,0,0,2.6,75.58a29.57,29.57,0,0,0,11.1,2.28C24.48,77.86,33.2,71.22,42.21,64.32Zm42.37-4.57c22.6,1.15,41.89,17.69,46.9,40.2a2.51,2.51,0,0,0,2.44,2,2.57,2.57,0,0,0,.55-.06,2.51,2.51,0,0,0,1.9-3c-5.51-24.7-26.7-42.84-51.54-44.12C65.69,53.77,53.45,64.5,42.65,74c-8.16,7.14-15.2,13.32-23.94,14a2.5,2.5,0,0,0,.36,5c10.41-.76,18.41-7.76,26.87-15.18C56.52,68.45,67.47,58.86,84.58,59.75Z"/><path class="cls-3" d="M22.4,120.07c-5.1,0-10.73-1.33-17.06-4.48a2.48,2.48,0,0,1-1.26-1.47l0-.07a2.46,2.46,0,0,1,3.48-2.9c18.21,9.2,28.93,1.35,40.55-9.85a2.63,2.63,0,0,1,3.5-.22,2.5,2.5,0,0,1,.1,3.69C43.39,112.79,34.37,120.07,22.4,120.07Zm39.91-7.83C69.66,103.53,76,96,85.15,97.77c5.27,1,11.8,4.6,13,15.88a2.5,2.5,0,1,0,5-.54c-1.17-11-7.38-18.38-17-20.25-12-2.32-19.94,7.08-27.61,16.16-10.7,12.69-21.74,25.75-45.42,16A2.46,2.46,0,0,0,10,128.46l0,.07a2.5,2.5,0,0,0,1.27,1.17,45.18,45.18,0,0,0,17.1,3.75C44.42,133.45,54.06,122,62.31,112.24Zm32.93,48a2.51,2.51,0,0,0,3.45-.45c13-16.36,18.31-34.41,15.38-52.2-2.36-14.38-13.84-25.51-27.91-27.08-12.3-1.38-21.37,5.11-28.64,11.68a2.6,2.6,0,0,0-.43,3.46,2.49,2.49,0,0,0,3.67.35c6.78-6.15,14.49-11.68,24.85-10.53,11.85,1.33,21.53,10.75,23.53,22.93,2.68,16.3-2.24,32.93-14.24,48.11A2.68,2.68,0,0,0,95.24,160.28ZM39.6,147.21a2.66,2.66,0,0,0,2.28-2.76,2.5,2.5,0,0,0-2.94-2.21,32.38,32.38,0,0,1-15.57-1.34,2.47,2.47,0,0,0-2.68,3.91l.06.08a2.53,2.53,0,0,0,1.2.8,41.51,41.51,0,0,0,12.18,2A31.8,31.8,0,0,0,39.6,147.21Zm71.19-69.62a2.51,2.51,0,0,0-3.69.37,2.65,2.65,0,0,0,.5,3.49,38.67,38.67,0,0,1,12.12,22.38,71.79,71.79,0,0,1-4.25,38.25,2.61,2.61,0,0,0,1,3.23,2.5,2.5,0,0,0,3.6-1.23,76.49,76.49,0,0,0,4.6-41.05A43.66,43.66,0,0,0,110.79,77.59ZM.88,99.92V100a2.47,2.47,0,0,0,1.22,1.79c6.63,3.78,12.48,5.34,17.76,5.34,12.54,0,21.91-8.79,31.07-17.4C61.12,80.17,71.63,70.3,87,72.05a2.5,2.5,0,1,0,.57-5c-17.66-2-29.54,9.14-40,19C34.93,97.9,23.8,108.32,4.56,97.4A2.49,2.49,0,0,0,.88,99.92Zm88.29,70.27a2.51,2.51,0,0,0-.08-3.7,2.62,2.62,0,0,0-3.5.19q-3.41,3.23-7.22,6.23a2.47,2.47,0,0,0,1.22,4.39h.07a2.51,2.51,0,0,0,1.85-.52C84.19,174.67,86.76,172.47,89.17,170.19Zm-12-40.48.2-.4a2.64,2.64,0,0,0-.86-3.4,2.51,2.51,0,0,0-3.55,1l-.28.56c-4.43,9-12.93,26.21-34.7,28.08A2.48,2.48,0,0,0,36.68,160l.07.05a2.44,2.44,0,0,0,1.69.48C62.93,158.47,72.61,138.87,77.12,129.71ZM98.28,177a110.17,110.17,0,0,0,16.59-22.11,2.61,2.61,0,0,0-.7-3.43,2.5,2.5,0,0,0-3.58.85,105.08,105.08,0,0,1-16,21.3,2.46,2.46,0,0,0,1.87,4.15h.08A2.46,2.46,0,0,0,98.28,177Zm-7.36-60.9a9.59,9.59,0,0,0-14.47-7.79c-4.86,2.9-8.8,8.22-13,13.86-3.9,5.27-7.94,10.72-13,14.69a2.65,2.65,0,0,0-.76,3.44,2.51,2.51,0,0,0,3.65.65c5.71-4.41,10.2-10.46,14.16-15.81S75,115,79,112.63a4.48,4.48,0,0,1,4.48-.09,4.56,4.56,0,0,1,2.43,3.82c.73,15.37-9.82,38.61-34.12,48.23a2.47,2.47,0,0,0-.14,4.51l.07,0a2.44,2.44,0,0,0,2,.07C80.22,158.66,91.73,133.07,90.92,116.13ZM102,128a2.63,2.63,0,0,0-1.64-3.1,2.5,2.5,0,0,0-3.2,1.83C93.8,141.51,82.87,158.9,65.13,170a2.47,2.47,0,0,0,.61,4.47l.07,0a2.51,2.51,0,0,0,2-.28C86.69,162.36,98.36,143.82,102,128Z"/><g class="cls-4"><path class="cls-5" d="M95.24,160.28a2.51,2.51,0,0,0,3.45-.45,76.29,76.29,0,0,0,13.19-24.12c-2,.66-4,1.25-5.93,1.77a72.77,72.77,0,0,1-11,19.07A2.68,2.68,0,0,0,95.24,160.28Z"/><path class="cls-5" d="M135,166.64l.09,0a2.44,2.44,0,0,0,.93-.9c1.38-2.28,2.73-4.68,4-7.13a88,88,0,0,0,4.88-11.51,2.58,2.58,0,0,0-1.28-3.19,2.5,2.5,0,0,0-3.41,1.46,82.15,82.15,0,0,1-4.64,11c-1.21,2.37-2.52,4.68-3.86,6.9A2.48,2.48,0,0,0,135,166.64Z"/><path class="cls-5" d="M119.23,167.07a2.5,2.5,0,0,0,3.47-.67c9.6-14.14,14.46-28,15.27-43.91-1.67,1.22-3.44,2.39-5.27,3.52-1.31,13.42-5.86,25.39-14.14,37.59A2.5,2.5,0,0,0,119.23,167.07Z"/><path class="cls-5" d="M51.67,169.1l.07,0a2.44,2.44,0,0,0,2,.07,59.68,59.68,0,0,0,31.37-28.66c-1.88.06-3.75.05-5.59,0a54.69,54.69,0,0,1-27.69,24.06A2.47,2.47,0,0,0,51.67,169.1Z"/><path class="cls-5" d="M116.45,145.31a2.5,2.5,0,0,0,3.6-1.23,80.27,80.27,0,0,0,4-13.35q-2.88,1.4-5.73,2.57a78.11,78.11,0,0,1-2.86,8.78A2.61,2.61,0,0,0,116.45,145.31Z"/><path class="cls-5" d="M149.75,150.21a2.47,2.47,0,0,0,4,2.61l.08-.07a2.58,2.58,0,0,0,.65-1,103.31,103.31,0,0,0,4.27-52.29c-1.26,2.16-2.62,4.28-4.12,6.35A98.61,98.61,0,0,1,149.75,150.21Z"/><path class="cls-5" d="M53.33,141a44.17,44.17,0,0,0,4.17-3.69c-1.89-.5-3.76-1-5.59-1.63-.48.42-1,.84-1.47,1.23a2.65,2.65,0,0,0-.76,3.44A2.51,2.51,0,0,0,53.33,141Z"/><path class="cls-5" d="M36.68,160l.07.05a2.44,2.44,0,0,0,1.69.48c17.2-1.47,27.08-11.58,33-20.63q-2.78-.33-5.49-.8c-5.47,7.65-14,15.24-28,16.44A2.48,2.48,0,0,0,36.68,160Z"/><path class="cls-5" d="M96.49,177.79h.08a2.46,2.46,0,0,0,1.71-.76,110.17,110.17,0,0,0,16.59-22.11,2.61,2.61,0,0,0-.7-3.43,2.5,2.5,0,0,0-3.58.85,105.08,105.08,0,0,1-16,21.3A2.46,2.46,0,0,0,96.49,177.79Z"/><path class="cls-5" d="M170.51,131a141.45,141.45,0,0,0-3-53.14,89.51,89.51,0,0,1-3,9.5c3,16.15,3.12,33.71.06,48.8v0a1.29,1.29,0,0,0,2.36.89c1.21-1.82,2.35-3.7,3.42-5.61A1.2,1.2,0,0,0,170.51,131Z"/><path class="cls-5" d="M85.59,166.68q-3.41,3.23-7.22,6.23a2.47,2.47,0,0,0,1.22,4.39h.07a2.51,2.51,0,0,0,1.85-.52c2.68-2.12,5.25-4.32,7.66-6.6a2.51,2.51,0,0,0-.08-3.7A2.62,2.62,0,0,0,85.59,166.68Z"/><path class="cls-5" d="M92.33,140a74.91,74.91,0,0,1-27.2,30,2.47,2.47,0,0,0,.61,4.47l.07,0a2.51,2.51,0,0,0,2-.28,80,80,0,0,0,30.41-35C96.24,139.54,94.27,139.81,92.33,140Z"/><path class="cls-5" d="M170.52,61a156,156,0,0,1,7.42,33.79,1.52,1.52,0,0,0,3,.16,40.38,40.38,0,0,0,1-7.82q-3.27-21.57-10.8-37.88C171.1,53.12,170.91,57.05,170.52,61Z"/><path class="cls-5" d="M20.75,144.89a2.53,2.53,0,0,0,1.2.8,41.51,41.51,0,0,0,12.18,2,31.8,31.8,0,0,0,5.47-.46,2.66,2.66,0,0,0,2.28-2.76,2.5,2.5,0,0,0-2.94-2.21,32.38,32.38,0,0,1-15.57-1.34,2.47,2.47,0,0,0-2.68,3.91Z"/><path class="cls-5" d="M146.3,133.44a2.51,2.51,0,0,0,2.47-2.12,88.37,88.37,0,0,0,.81-19.26c-1.5,1.66-3.11,3.28-4.81,4.85a84.82,84.82,0,0,1-.94,13.65,2.5,2.5,0,0,0,2.09,2.85A2.43,2.43,0,0,0,146.3,133.44Z"/><path class="cls-5" d="M4.08,114.12a2.48,2.48,0,0,0,1.26,1.47,40.18,40.18,0,0,0,14.41,4.35c-4.36-2.88-8.29-5.8-11.73-8.56l-.48-.23a2.46,2.46,0,0,0-3.48,2.9Z"/><path class="cls-5" d="M40.14,131.17c-2.31-1-4.56-2.1-6.73-3.22-5.63,1.08-12.25.42-20.34-2.9A2.46,2.46,0,0,0,10,128.46l0,.07a2.5,2.5,0,0,0,1.27,1.17,45.18,45.18,0,0,0,17.1,3.75A31,31,0,0,0,40.14,131.17Z"/></g><g class="cls-6"><path class="cls-7" d="M87.55,67.09c-14-1.62-24.4,5.1-33.33,12.87,2.44.23,4.91.34,7.41.37C68.83,74.8,76.85,70.9,87,72.05a2.5,2.5,0,1,0,.57-5Z"/><path class="cls-7" d="M13.53,55.44a2.5,2.5,0,0,0,.25,5l.25,0c9.81-1,19.21-6.82,29.16-13,9.32-5.8,19-11.8,30.19-14.85a2.5,2.5,0,0,0-1.31-4.83C60.14,31,49.73,37.45,40.55,43.16,31.1,49,22.18,54.58,13.53,55.44Z"/><path class="cls-7" d="M13.14,47c.57,0,1.15.07,1.74.07a26.59,26.59,0,0,0,13.34-3.78l.24-.16c3.58-2.67,7.17-5.15,10.69-7.39a2.56,2.56,0,0,0,1.08-3,2.51,2.51,0,0,0-3.68-1.22C32.94,33.71,29.26,36.25,25.6,39a21.47,21.47,0,0,1-12.1,3,2.43,2.43,0,0,0-2.28,1.21l-.09.15A2.48,2.48,0,0,0,13.14,47Z"/><path class="cls-7" d="M50,29.14a2.5,2.5,0,0,0,1.12-.27c20.48-10.37,39.78-13.14,57.37-8.24a2.5,2.5,0,0,0,1.34-4.81c-18.83-5.25-39.34-2.36-61,8.59A2.5,2.5,0,0,0,50,29.14Z"/><path class="cls-7" d="M79.24,3.29A2.49,2.49,0,0,0,82,5.49a74.94,74.94,0,0,1,13.65-.32c18.56,1.27,34.18,6.42,46.43,15.32a2.5,2.5,0,0,0,2.94-4C132,7,115.51,1.52,96,.19A79.63,79.63,0,0,0,81.43.52,2.5,2.5,0,0,0,79.24,3.29Z"/><path class="cls-7" d="M42.65,74,38.93,77.2c2,.54,4,1,6,1.4l1-.87c10.58-9.28,21.53-18.87,38.64-18a49.77,49.77,0,0,1,24.48,8q2.34-1.4,4.61-2.92a54.88,54.88,0,0,0-28.84-10C65.69,53.77,53.45,64.5,42.65,74Z"/><path class="cls-7" d="M19.52,30.86a1.43,1.43,0,0,0,1.1,2.41h0c3.52-.25,8-3.25,14.08-7.4,7.51-5.09,17.79-12,30.43-16.47a2.6,2.6,0,0,0,1.73-3.09,2.51,2.51,0,0,0-3.23-1.68c-13.33,4.63-24,11.84-31.74,17.1-2.27,1.54-4.4,3-6.26,4.12A29,29,0,0,0,19.52,30.86Z"/><path class="cls-7" d="M42.21,64.32a2.59,2.59,0,0,0,.73-3.38,2.5,2.5,0,0,0-3.65-.68C33.4,64.77,28.14,68.8,22.65,71c1.94,1,3.92,1.84,5.93,2.66A107.34,107.34,0,0,0,42.21,64.32Z"/><path class="cls-7" d="M121.51,23a2.49,2.49,0,0,0,1,3.39A81.58,81.58,0,0,1,139.2,38.7c.93-1.43,1.81-2.88,2.66-4.37A85.9,85.9,0,0,0,124.9,22,2.5,2.5,0,0,0,121.51,23Z"/><path class="cls-7" d="M84.11,25.68a2.5,2.5,0,1,0,.33,5c19.3-1.28,35,4.88,47,18.38q1.64-1.86,3.16-3.81C121.61,31,104.58,24.31,84.11,25.68Z"/><path class="cls-7" d="M58,53.33a54,54,0,0,1,55.45.44,2.55,2.55,0,0,0,1.32.38,2.5,2.5,0,0,0,1.33-4.63A59,59,0,0,0,55.54,49,2.5,2.5,0,0,0,58,53.33Z"/></g></g></g></g></svg>